<svg xmlns="http://www.w3.org/2000/svg" xmlns:xlink="http://www.w3.org/1999/xlink" contentStyleType="text/css" data-diagram-type="DESCRIPTION" height="496px" preserveAspectRatio="none" style="width:643px;height:496px;background:#FFFFFF;" version="1.1" viewBox="0 0 643 496" width="643px" zoomAndPan="magnify"><title>Architecture - Multivariate Financial Forecasting</title><defs/><g><g class="title" data-source-line="3"><text fill="#000000" font-family="sans-serif" font-size="14" font-weight="bold" lengthAdjust="spacing" textLength="383.9814" x="122.8893" y="22.9951">Architecture - Multivariate Financial Forecasting</text></g><!--cluster Data Sources--><g class="cluster" data-entity="Data Sources" data-source-line="9" data-uid="ent0005" id="cluster_Data Sources"><path d="M253.26,43.2969 L357.0413,43.2969 A5.25,5.25 0 0 1 360.5413,46.7969 L367.5413,65.5938 L601.26,65.5938 A3.5,3.5 0 0 1 604.76,69.0938 L604.76,137.0969 A3.5,3.5 0 0 1 601.26,140.5969 L253.26,140.5969 A3.5,3.5 0 0 1 249.76,137.0969 L249.76,46.7969 A3.5,3.5 0 0 1 253.26,43.2969" fill="none" style="stroke:#696969;stroke-width:1;"/><line style="stroke:#696969;stroke-width:1;" x1="249.76" x2="367.5413" y1="65.5938" y2="65.5938"/><text fill="#000000" font-family="sans-serif" font-size="14" font-weight="bold" lengthAdjust="spacing" textLength="104.7813" x="253.76" y="58.292">Data Sources</text></g><!--cluster Forecasting Platform--><g class="cluster" data-entity="Forecasting Platform" data-source-line="14" data-uid="ent0008" id="cluster_Forecasting Platform"><path d="M308.26,164.5969 L473.6741,164.5969 A5.25,5.25 0 0 1 477.1741,168.0969 L484.1741,186.8938 L633.26,186.8938 A3.5,3.5 0 0 1 636.76,190.3938 L636.76,485.9869 A3.5,3.5 0 0 1 633.26,489.4869 L308.26,489.4869 A3.5,3.5 0 0 1 304.76,485.9869 L304.76,168.0969 A3.5,3.5 0 0 1 308.26,164.5969" fill="none" style="stroke:#696969;stroke-width:1;"/><line style="stroke:#696969;stroke-width:1;" x1="304.76" x2="484.1741" y1="186.8938" y2="186.8938"/><text fill="#000000" font-family="sans-serif" font-size="14" font-weight="bold" lengthAdjust="spacing" textLength="166.4141" x="308.76" y="179.592">Forecasting Platform</text></g><!--cluster Applications--><g class="cluster" data-entity="Applications" data-source-line="20" data-uid="ent0012" id="cluster_Applications"><path d="M94.26,285.8969 L190.8909,285.8969 A5.25,5.25 0 0 1 194.3909,289.3969 L201.3909,308.1937 L277.26,308.1937 A3.5,3.5 0 0 1 280.76,311.6937 L280.76,379.6869 A3.5,3.5 0 0 1 277.26,383.1869 L94.26,383.1869 A3.5,3.5 0 0 1 90.76,379.6869 L90.76,289.3969 A3.5,3.5 0 0 1 94.26,285.8969" fill="none" style="stroke:#696969;stroke-width:1;"/><line style="stroke:#696969;stroke-width:1;" x1="90.76" x2="201.3909" y1="308.1937" y2="308.1937"/><text fill="#000000" font-family="sans-serif" font-size="14" font-weight="bold" lengthAdjust="spacing" textLength="97.6309" x="94.76" y="300.892">Applications</text></g><!--entity MarketData--><g class="entity" data-entity="MarketData" data-source-line="10" data-uid="ent0006" id="entity_MarketData"><path d="M273.6447,86.4718 C278.0808,79.8727 284.3387,80.6648 287.5884,87.6863 C290.097,81.6493 294.714,79.8461 299.346,85.562 C303.9945,78.8032 307.9964,79.768 312.6742,85.5308 C316.218,79.1194 321.6405,78.5151 325.7735,84.929 C328.6387,79.9126 332.7911,79.3489 336.4077,84.1118 C340.5897,78.2594 346.2469,78.2688 349.2538,85.2847 C354.3522,79.49 359.0296,80.3032 361.9189,87.4471 C366.3168,79.6847 370.6009,79.405 376.0574,86.4353 C387.1413,87.8992 390.2077,93.8711 383.6539,103.2862 C388.6631,111.8211 384.0458,117.355 375.3507,118.322 C371.4635,125.3057 365.0551,124.3439 361.5103,117.9673 C358.7186,124.0045 353.9082,124.2691 350.0739,119.0241 C345.8763,126.1416 340.629,125.8216 336.7045,118.7664 C333.5702,123.9819 329.8659,123.9207 325.8239,119.8274 C321.3056,125.7356 316.0021,126.2977 311.9789,119.2964 C308.4574,126.3335 302.4462,124.4768 299.0171,119.1992 C295.4562,125.9903 289.9391,124.7027 286.2489,119.3349 C282.2505,123.7469 278.4944,123.1128 275.5108,118.17 C266.103,117.4906 260.159,111.2879 265.9564,101.7571 C261.1468,94.363 264.7512,86.9734 273.6447,86.4718" fill="#F1F1F1" style="stroke:#181818;stroke-width:0.5;"/><text fill="#000000" font-family="sans-serif" font-size="14" lengthAdjust="spacing" textLength="86.502" x="280.51" y="106.292">Market Data</text></g><!--entity EconData--><g class="entity" data-entity="EconData" data-source-line="11" data-uid="ent0007" id="entity_EconData"><path d="M425.5882,87.3559 C428.2179,80.5843 433.6164,80.6752 437.3716,86.2848 C440.9108,81.3912 445.2682,81.8835 447.7714,87.3271 C450.5609,81.2554 455.68,79.1248 460.5009,85.1981 C464.3283,80.9274 468.3842,81.3738 471.3764,86.1969 C473.7919,80.1361 478.8401,80.333 482.7059,84.607 C486.1538,80.1795 490.0688,80.7508 492.7701,85.4319 C495.964,80.4996 500.1903,80.1763 504.1426,84.5 C506.7356,79.441 511.3501,80.0867 514.1135,84.3171 C517.6931,78.9579 523.3537,78.619 526.7898,84.4793 C530.695,79.9901 534.0943,81.3576 536.0913,86.351 C539.9198,80.5822 544.6583,79.3317 548.7002,86.1369 C552.0978,81.6431 556.8188,81.1297 559.5966,86.8013 C562.8648,81.6514 567.1308,81.012 571.0779,86.035 C574.1095,81.2982 579.0076,80.6434 581.6481,86.4279 C591.2633,89.7115 592.3284,94.7926 585.3957,102.0468 C591.8872,108.2963 590.0719,114.496 581.4402,116.6488 C578.9439,122.6576 574.7477,122.7584 570.8166,118.0741 C568.4835,124.4145 563.8565,124.9945 559.8676,119.6219 C557.4198,125.1291 551.997,125.2354 548.4301,120.9257 C545.6811,126.4722 540.1506,126.9684 536.8332,121.5256 C533.8058,126.909 529.3272,127.3858 525.5975,122.2778 C523.689,127.8644 518.7095,128.6003 515.1404,123.979 C512.4175,129.0719 508.1327,130.3391 504.5071,124.8895 C500.6707,130.3527 495.9232,128.7496 493.707,123.2879 C488.9066,129.3755 484.8433,128.8444 480.9778,122.3425 C476.9102,126.2403 473.4016,125.736 470.4294,121.0035 C466.6965,126.4102 462.867,126.0438 459.5381,120.5981 C456.1912,125.7167 451.8197,124.5954 448.9622,120.0619 C444.5861,125.6848 439.4243,125.6579 436.4177,118.6967 C432.9973,122.49 428.9253,122.3399 426.9352,117.1816 C417.3428,116.386 415.4092,110.1211 420.089,102.6168 C414.7847,96.0232 415.961,88.5689 425.5882,87.3559" fill="#F1F1F1" style="stroke:#181818;stroke-width:0.5;"/><text fill="#000000" font-family="sans-serif" font-size="14" lengthAdjust="spacing" textLength="141.3809" x="432.07" y="106.292">Economic Indicators</text></g><!--entity Preproc--><g class="entity" data-entity="Preproc" data-source-line="15" data-uid="ent0009" id="entity_Preproc"><rect fill="#F1F1F1" height="46.2969" rx="3.5" ry="3.5" style="stroke:#181818;stroke-width:0.5;" width="300.8115" x="320.36" y="199.5969"/><rect fill="#F1F1F1" height="10" style="stroke:#181818;stroke-width:0.5;" width="15" x="601.1715" y="204.5969"/><rect fill="#F1F1F1" height="2" style="stroke:#181818;stroke-width:0.5;" width="4" x="599.1715" y="206.5969"/><rect fill="#F1F1F1" height="2" style="stroke:#181818;stroke-width:0.5;" width="4" x="599.1715" y="210.5969"/><text fill="#000000" font-family="sans-serif" font-size="14" lengthAdjust="spacing" textLength="260.8115" x="335.36" y="232.592">Preprocessing &amp; Feature Engineering</text></g><!--entity Modeling--><g class="entity" data-entity="Modeling" data-source-line="16" data-uid="ent0010" id="entity_Modeling"><rect fill="#F1F1F1" height="46.2969" rx="3.5" ry="3.5" style="stroke:#181818;stroke-width:0.5;" width="156.1152" x="343.7" y="320.8969"/><rect fill="#F1F1F1" height="10" style="stroke:#181818;stroke-width:0.5;" width="15" x="479.8152" y="325.8969"/><rect fill="#F1F1F1" height="2" style="stroke:#181818;stroke-width:0.5;" width="4" x="477.8152" y="327.8969"/><rect fill="#F1F1F1" height="2" style="stroke:#181818;stroke-width:0.5;" width="4" x="477.8152" y="331.8969"/><text fill="#000000" font-family="sans-serif" font-size="14" lengthAdjust="spacing" textLength="116.1152" x="358.7" y="353.892">Modeling Engine</text></g><!--entity Eval--><g class="entity" data-entity="Eval" data-source-line="17" data-uid="ent0011" id="entity_Eval"><rect fill="#F1F1F1" height="46.2969" rx="3.5" ry="3.5" style="stroke:#181818;stroke-width:0.5;" width="202.374" x="320.57" y="427.1869"/><rect fill="#F1F1F1" height="10" style="stroke:#181818;stroke-width:0.5;" width="15" x="502.944" y="432.1869"/><rect fill="#F1F1F1" height="2" style="stroke:#181818;stroke-width:0.5;" width="4" x="500.944" y="434.1869"/><rect fill="#F1F1F1" height="2" style="stroke:#181818;stroke-width:0.5;" width="4" x="500.944" y="438.1869"/><text fill="#000000" font-family="sans-serif" font-size="14" lengthAdjust="spacing" textLength="162.374" x="335.57" y="460.182">Evaluation &amp; Reporting</text></g><!--entity Dashboard--><g class="entity" data-entity="Dashboard" data-source-line="21" data-uid="ent0013" id="entity_Dashboard"><rect fill="#F1F1F1" height="46.2969" rx="3.5" ry="3.5" style="stroke:#181818;stroke-width:0.5;" width="158.166" x="106.68" y="320.8969"/><rect fill="#F1F1F1" height="10" style="stroke:#181818;stroke-width:0.5;" width="15" x="244.846" y="325.8969"/><rect fill="#F1F1F1" height="2" style="stroke:#181818;stroke-width:0.5;" width="4" x="242.846" y="327.8969"/><rect fill="#F1F1F1" height="2" style="stroke:#181818;stroke-width:0.5;" width="4" x="242.846" y="331.8969"/><text fill="#000000" font-family="sans-serif" font-size="14" lengthAdjust="spacing" textLength="118.166" x="121.68" y="353.892">Dashboard &amp; API</text></g><!--entity Researcher--><g class="entity" data-entity="Researcher" data-source-line="5" data-uid="ent0002" id="entity_Researcher"><ellipse cx="45.7612" cy="193.0969" fill="#454645" rx="8" ry="8" style="stroke:#454645;stroke-width:0.5;"/><path d="M45.7612,201.0969 L45.7612,228.0969 M32.7612,209.0969 L58.7612,209.0969 M45.7612,228.0969 L32.7612,243.0969 M45.7612,228.0969 L58.7612,243.0969" fill="none" style="stroke:#454645;stroke-width:0.5;"/><text fill="#454645" font-family="sans-serif" font-size="14" lengthAdjust="spacing" textLength="79.5225" x="6" y="257.592">Researcher</text></g><!--entity Investor--><g class="entity" data-entity="Investor" data-source-line="6" data-uid="ent0003" id="entity_Investor"><ellipse cx="148.7624" cy="193.0969" fill="#454645" rx="8" ry="8" style="stroke:#454645;stroke-width:0.5;"/><path d="M148.7624,201.0969 L148.7624,228.0969 M135.7624,209.0969 L161.7624,209.0969 M148.7624,228.0969 L135.7624,243.0969 M148.7624,228.0969 L161.7624,243.0969" fill="none" style="stroke:#454645;stroke-width:0.5;"/><text fill="#454645" font-family="sans-serif" font-size="14" lengthAdjust="spacing" textLength="57.0049" x="120.26" y="257.592">Investor</text></g><!--entity Economist--><g class="entity" data-entity="Economist" data-source-line="7" data-uid="ent0004" id="entity_Economist"><ellipse cx="248.7587" cy="193.0969" fill="#454645" rx="8" ry="8" style="stroke:#454645;stroke-width:0.5;"/><path d="M248.7587,201.0969 L248.7587,228.0969 M235.7587,209.0969 L261.7587,209.0969 M248.7587,228.0969 L235.7587,243.0969 M248.7587,228.0969 L261.7587,243.0969" fill="none" style="stroke:#454645;stroke-width:0.5;"/><text fill="#454645" font-family="sans-serif" font-size="14" lengthAdjust="spacing" textLength="72.8574" x="212.33" y="257.592">Economist</text></g><!--link Researcher to Dashboard--><g class="link" data-entity-1="Researcher" data-entity-2="Dashboard" data-source-line="24" data-uid="lnk14" id="link_Researcher_Dashboard"><path d="M85.93,223.4869 C100.51,223.4869 113.47,223.4869 113.47,223.4869 C113.47,223.4869 113.47,279.4269 113.47,314.5069" fill="none" id="Researcher-to-Dashboard" style="stroke:#454645;stroke-width:1;"/><polygon fill="#454645" points="113.47,320.5069,117.47,311.5069,113.47,315.5069,109.47,311.5069,113.47,320.5069" style="stroke:#454645;stroke-width:1;"/></g><!--link Investor to Dashboard--><g class="link" data-entity-1="Investor" data-entity-2="Dashboard" data-source-line="25" data-uid="lnk15" id="link_Investor_Dashboard"><path d="M148.76,261.1269 C148.76,280.6969 148.76,297.8669 148.76,314.7269" fill="none" id="Investor-to-Dashboard" style="stroke:#454645;stroke-width:1;"/><polygon fill="#454645" points="148.76,320.7269,152.76,311.7269,148.76,315.7269,144.76,311.7269,148.76,320.7269" style="stroke:#454645;stroke-width:1;"/></g><!--link Economist to Dashboard--><g class="link" data-entity-1="Economist" data-entity-2="Dashboard" data-source-line="26" data-uid="lnk16" id="link_Economist_Dashboard"><path d="M238.59,261.1269 C238.59,280.6969 238.59,297.8669 238.59,314.7269" fill="none" id="Economist-to-Dashboard" style="stroke:#454645;stroke-width:1;"/><polygon fill="#454645" points="238.59,320.7269,242.59,311.7269,238.59,315.7269,234.59,311.7269,238.59,320.7269" style="stroke:#454645;stroke-width:1;"/></g><!--link Dashboard to Modeling--><g class="link" data-entity-1="Dashboard" data-entity-2="Modeling" data-source-line="28" data-uid="lnk17" id="link_Dashboard_Modeling"><path d="M265.33,332.4869 C290.49,332.4869 312.26,332.4869 337.34,332.4869" fill="none" id="Dashboard-to-Modeling" style="stroke:#454645;stroke-width:1;"/><polygon fill="#454645" points="343.34,332.4869,334.34,328.4869,338.34,332.4869,334.34,336.4869,343.34,332.4869" style="stroke:#454645;stroke-width:1;"/></g><!--link Dashboard to Eval--><g class="link" data-entity-1="Dashboard" data-entity-2="Eval" data-source-line="29" data-uid="lnk18" id="link_Dashboard_Eval"><path d="M264.94,356.4869 C297.75,356.4869 328.28,356.4869 328.28,356.4869 C328.28,356.4869 328.28,393.3469 328.28,421.1369" fill="none" id="Dashboard-to-Eval" style="stroke:#454645;stroke-width:1;"/><polygon fill="#454645" points="328.28,427.1369,332.28,418.1369,328.28,422.1369,324.28,418.1369,328.28,427.1369" style="stroke:#454645;stroke-width:1;"/></g><!--link Eval to Dashboard--><g class="link" data-entity-1="Eval" data-entity-2="Dashboard" data-source-line="35" data-uid="lnk23" id="link_Eval_Dashboard"><path d="M335.99,426.8469 C335.99,395.6569 335.99,344.4869 335.99,344.4869 C335.99,344.4869 307.31,344.4869 271.28,344.4869" fill="none" id="Eval-to-Dashboard" style="stroke:#454645;stroke-width:1;"/><polygon fill="#454645" points="265.28,344.4869,274.28,348.4869,270.28,344.4869,274.28,340.4869,265.28,344.4869" style="stroke:#454645;stroke-width:1;"/></g><!--link MarketData to Preproc--><g class="link" data-entity-1="MarketData" data-entity-2="Preproc" data-source-line="31" data-uid="lnk19" id="link_MarketData_Preproc"><path d="M351.18,124.8369 C351.18,146.3169 351.18,171.9769 351.18,193.4269" fill="none" id="MarketData-to-Preproc" style="stroke:#454645;stroke-width:1;"/><polygon fill="#454645" points="351.18,199.4269,355.18,190.4269,351.18,194.4269,347.18,190.4269,351.18,199.4269" style="stroke:#454645;stroke-width:1;"/></g><!--link EconData to Preproc--><g class="link" data-entity-1="EconData" data-entity-2="Preproc" data-source-line="32" data-uid="lnk20" id="link_EconData_Preproc"><path d="M502.76,124.8369 C502.76,146.3169 502.76,171.9769 502.76,193.4269" fill="none" id="EconData-to-Preproc" style="stroke:#454645;stroke-width:1;"/><polygon fill="#454645" points="502.76,199.4269,506.76,190.4269,502.76,194.4269,498.76,190.4269,502.76,199.4269" style="stroke:#454645;stroke-width:1;"/></g><!--link Preproc to Modeling--><g class="link" data-entity-1="Preproc" data-entity-2="Modeling" data-source-line="33" data-uid="lnk21" id="link_Preproc_Modeling"><path d="M421.76,246.1369 C421.76,267.6069 421.76,293.2669 421.76,314.7269" fill="none" id="Preproc-to-Modeling" style="stroke:#454645;stroke-width:1;"/><polygon fill="#454645" points="421.76,320.7269,425.76,311.7269,421.76,315.7269,417.76,311.7269,421.76,320.7269" style="stroke:#454645;stroke-width:1;"/></g><!--link Modeling to Eval--><g class="link" data-entity-1="Modeling" data-entity-2="Eval" data-source-line="34" data-uid="lnk22" id="link_Modeling_Eval"><path d="M421.76,367.6369 C421.76,385.2469 421.76,403.2169 421.76,420.8169" fill="none" id="Modeling-to-Eval" style="stroke:#454645;stroke-width:1;"/><polygon fill="#454645" points="421.76,426.8169,425.76,417.8169,421.76,421.8169,417.76,417.8169,421.76,426.8169" style="stroke:#454645;stroke-width:1;"/></g><!--SRC=[PL7BRW8n3BpdAzmzzCOlL48290v8Y7w1oRfiH3Q97EzALTL_RnBsGUY5nJFZ6ST-auvwWj5S6PseU3Sk86CFrZYIxq3WMJgln8WbsBBkZ92MWGasS1gic17Pe10SZ4Ed3LeuU2QDKOoxAOLQF4DpeKYOkeaRm0XhEGkERgIO_XLwBcPohxtplObIsALIAg2-uusWsQ4WVFg1DSK6VXI0jdveeJaXtqaWywNvKUTorKo6EkMsHcEAZ4jGKVu-9Jsz3iuMvSjpFoNwFdX7Jg0vCmNsQPQOPUzm82mxsxjRsYjnGal2fAkRJxubc_iUwiVO4rOhzoFQ0SLubp8k5DAjPkTCLNDlGx3vSKaS_ysxmzXTFNARVBRdOt5Oi6op7WmscuydRZxL2xpSw0LNQr8cbcVLS1bUhQSguBoh-IeLE7rhqsMHYsV-gIVw0m00]--></g></svg>