<svg xmlns="http://www.w3.org/2000/svg" xmlns:xlink="http://www.w3.org/1999/xlink" contentStyleType="text/css" data-diagram-type="CLASS" height="1015px" preserveAspectRatio="none" style="width:2213px;height:1015px;background:#FFFFFF;" version="1.1" viewBox="0 0 2213 1015" width="2213px" zoomAndPan="magnify"><title>Forecasting Platform — Class Diagram</title><defs/><g><g class="title" data-source-line="6"><text fill="#000000" font-family="sans-serif" font-size="14" font-weight="bold" lengthAdjust="spacing" textLength="303.0508" x="948.1596" y="22.9951">Forecasting Platform — Class Diagram</text></g><!--cluster Data Layer--><g class="cluster" data-entity="Data Layer" data-source-line="8" data-uid="ent0002" id="cluster_Data Layer"><path d="M9.5,467.2969 L94.4756,467.2969 A5.25,5.25 0 0 1 97.9756,470.7969 L104.9756,489.5938 L975.07,489.5938 A3.5,3.5 0 0 1 978.57,493.0938 L978.57,872.7969 A3.5,3.5 0 0 1 975.07,876.2969 L9.5,876.2969 A3.5,3.5 0 0 1 6,872.7969 L6,470.7969 A3.5,3.5 0 0 1 9.5,467.2969" fill="none" style="stroke:#696969;stroke-width:1;"/><line style="stroke:#696969;stroke-width:1;" x1="6" x2="104.9756" y1="489.5938" y2="489.5938"/><text fill="#000000" font-family="sans-serif" font-size="14" font-weight="bold" lengthAdjust="spacing" textLength="85.9756" x="10" y="482.292">Data Layer</text></g><!--cluster Preprocessing--><g class="cluster" data-entity="Preprocessing" data-source-line="32" data-uid="ent0007" id="cluster_Preprocessing"><path d="M1448.99,811.2969 L1560.4412,811.2969 A5.25,5.25 0 0 1 1563.9412,814.7969 L1570.9412,833.5938 L2202.87,833.5938 A3.5,3.5 0 0 1 2206.37,837.0938 L2206.37,1004.7969 A3.5,3.5 0 0 1 2202.87,1008.2969 L1448.99,1008.2969 A3.5,3.5 0 0 1 1445.49,1004.7969 L1445.49,814.7969 A3.5,3.5 0 0 1 1448.99,811.2969" fill="none" style="stroke:#696969;stroke-width:1;"/><line style="stroke:#696969;stroke-width:1;" x1="1445.49" x2="1570.9412" y1="833.5938" y2="833.5938"/><text fill="#000000" font-family="sans-serif" font-size="14" font-weight="bold" lengthAdjust="spacing" textLength="112.4512" x="1449.49" y="826.292">Preprocessing</text></g><!--cluster Modeling--><g class="cluster" data-entity="Modeling" data-source-line="48" data-uid="ent0011" id="cluster_Modeling"><path d="M1006.07,43.2969 L1077.7223,43.2969 A5.25,5.25 0 0 1 1081.2223,46.7969 L1088.2223,65.5938 L1726.89,65.5938 A3.5,3.5 0 0 1 1730.39,69.0938 L1730.39,628.7969 A3.5,3.5 0 0 1 1726.89,632.2969 L1006.07,632.2969 A3.5,3.5 0 0 1 1002.57,628.7969 L1002.57,46.7969 A3.5,3.5 0 0 1 1006.07,43.2969" fill="none" style="stroke:#696969;stroke-width:1;"/><line style="stroke:#696969;stroke-width:1;" x1="1002.57" x2="1088.2223" y1="65.5938" y2="65.5938"/><text fill="#000000" font-family="sans-serif" font-size="14" font-weight="bold" lengthAdjust="spacing" textLength="72.6523" x="1006.57" y="58.292">Modeling</text></g><!--cluster Evaluation--><g class="cluster" data-entity="Evaluation" data-source-line="70" data-uid="ent0026" id="cluster_Evaluation"><path d="M1354.07,656.2969 L1436.4958,656.2969 A5.25,5.25 0 0 1 1439.9958,659.7969 L1446.9958,678.5938 L1923.22,678.5938 A3.5,3.5 0 0 1 1926.72,682.0938 L1926.72,783.7969 A3.5,3.5 0 0 1 1923.22,787.2969 L1354.07,787.2969 A3.5,3.5 0 0 1 1350.57,783.7969 L1350.57,659.7969 A3.5,3.5 0 0 1 1354.07,656.2969" fill="none" style="stroke:#696969;stroke-width:1;"/><line style="stroke:#696969;stroke-width:1;" x1="1350.57" x2="1446.9958" y1="678.5938" y2="678.5938"/><text fill="#000000" font-family="sans-serif" font-size="14" font-weight="bold" lengthAdjust="spacing" textLength="83.4258" x="1354.57" y="671.292">Evaluation</text></g><!--class DataFetcher--><g class="entity" data-entity="DataFetcher" data-source-line="9" data-uid="ent0003" id="entity_DataFetcher"><rect fill="#F1F1F1" height="96.8906" rx="3.5" ry="3.5" style="stroke:#181818;stroke-width:0.5;" width="491.9102" x="22" y="657.8469"/><ellipse cx="220.4438" cy="673.8469" fill="#ADD1B2" rx="11" ry="11" style="stroke:#181818;stroke-width:1;"/><path d="M223.4126,679.4875 Q222.8345,679.7844 222.1938,679.925 Q221.5532,680.0813 220.8501,680.0813 Q218.3501,680.0813 217.022,678.4406 Q215.7095,676.7844 215.7095,673.6594 Q215.7095,670.5344 217.022,668.8781 Q218.3501,667.2219 220.8501,667.2219 Q221.5532,667.2219 222.1938,667.3781 Q222.8501,667.5344 223.4126,667.8313 L223.4126,670.55 Q222.7876,669.9719 222.1938,669.7063 Q221.6001,669.425 220.9751,669.425 Q219.6313,669.425 218.9438,670.5031 Q218.2563,671.5656 218.2563,673.6594 Q218.2563,675.7531 218.9438,676.8313 Q219.6313,677.8938 220.9751,677.8938 Q221.6001,677.8938 222.1938,677.6281 Q222.7876,677.3469 223.4126,676.7688 L223.4126,679.4875 Z " fill="#000000"/><text fill="#000000" font-family="sans-serif" font-size="14" lengthAdjust="spacing" textLength="86.5225" x="240.9438" y="678.6936">DataFetcher</text><line style="stroke:#181818;stroke-width:0.5;" x1="23" x2="512.9102" y1="689.8469" y2="689.8469"/><rect fill="none" height="6" style="stroke:#C82930;stroke-width:1;" width="6" x="30" y="700.4953"/><text fill="#000000" font-family="sans-serif" font-size="14" lengthAdjust="spacing" textLength="255.9375" x="42" y="706.842">yahooFetcher: YahooFinanceFetcher</text><rect fill="none" height="6" style="stroke:#C82930;stroke-width:1;" width="6" x="30" y="716.7922"/><text fill="#000000" font-family="sans-serif" font-size="14" lengthAdjust="spacing" textLength="174.8496" x="42" y="723.1389">fredFetcher: FredFetcher</text><line style="stroke:#181818;stroke-width:0.5;" x1="23" x2="512.9102" y1="730.4406" y2="730.4406"/><ellipse cx="33" cy="744.0891" fill="#84BE84" rx="3" ry="3" style="stroke:#038048;stroke-width:1;"/><text fill="#000000" font-family="sans-serif" font-size="14" lengthAdjust="spacing" textLength="465.9102" x="42" y="747.4357">fetchAllData(marketSymbols, fredSeries, startDate, endDate): dict</text></g><!--class YahooFinanceFetcher--><g class="entity" data-entity="YahooFinanceFetcher" data-source-line="15" data-uid="ent0004" id="entity_YahooFinanceFetcher"><rect fill="#F1F1F1" height="64.2969" rx="3.5" ry="3.5" style="stroke:#181818;stroke-width:0.5;" width="394.7441" x="565.87" y="796.1469"/><ellipse cx="683.5883" cy="812.1469" fill="#ADD1B2" rx="11" ry="11" style="stroke:#181818;stroke-width:1;"/><path d="M686.557,817.7875 Q685.9789,818.0844 685.3383,818.225 Q684.6976,818.3813 683.9945,818.3813 Q681.4945,818.3813 680.1664,816.7406 Q678.8539,815.0844 678.8539,811.9594 Q678.8539,808.8344 680.1664,807.1781 Q681.4945,805.5219 683.9945,805.5219 Q684.6976,805.5219 685.3383,805.6781 Q685.9945,805.8344 686.557,806.1313 L686.557,808.85 Q685.932,808.2719 685.3383,808.0063 Q684.7445,807.725 684.1195,807.725 Q682.7758,807.725 682.0883,808.8031 Q681.4008,809.8656 681.4008,811.9594 Q681.4008,814.0531 682.0883,815.1313 Q682.7758,816.1938 684.1195,816.1938 Q684.7445,816.1938 685.3383,815.9281 Q685.932,815.6469 686.557,815.0688 L686.557,817.7875 Z " fill="#000000"/><text fill="#000000" font-family="sans-serif" font-size="14" lengthAdjust="spacing" textLength="150.8076" x="704.0883" y="816.9936">YahooFinanceFetcher</text><line style="stroke:#181818;stroke-width:0.5;" x1="566.87" x2="959.6141" y1="828.1469" y2="828.1469"/><line style="stroke:#181818;stroke-width:0.5;" x1="566.87" x2="959.6141" y1="836.1469" y2="836.1469"/><ellipse cx="576.87" cy="849.7953" fill="#84BE84" rx="3" ry="3" style="stroke:#038048;stroke-width:1;"/><text fill="#000000" font-family="sans-serif" font-size="14" lengthAdjust="spacing" textLength="368.7441" x="585.87" y="853.142">fetchData(symbols, startDate, endDate): DataFrame</text></g><!--class FredFetcher--><g class="entity" data-entity="FredFetcher" data-source-line="19" data-uid="ent0005" id="entity_FredFetcher"><rect fill="#F1F1F1" height="80.5938" rx="3.5" ry="3.5" style="stroke:#181818;stroke-width:0.5;" width="398.6611" x="563.91" y="665.9969"/><ellipse cx="716.7889" cy="681.9969" fill="#ADD1B2" rx="11" ry="11" style="stroke:#181818;stroke-width:1;"/><path d="M719.7577,687.6375 Q719.1795,687.9344 718.5389,688.075 Q717.8983,688.2313 717.1952,688.2313 Q714.6952,688.2313 713.367,686.5906 Q712.0545,684.9344 712.0545,681.8094 Q712.0545,678.6844 713.367,677.0281 Q714.6952,675.3719 717.1952,675.3719 Q717.8983,675.3719 718.5389,675.5281 Q719.1952,675.6844 719.7577,675.9813 L719.7577,678.7 Q719.1327,678.1219 718.5389,677.8563 Q717.9452,677.575 717.3202,677.575 Q715.9764,677.575 715.2889,678.6531 Q714.6014,679.7156 714.6014,681.8094 Q714.6014,683.9031 715.2889,684.9813 Q715.9764,686.0438 717.3202,686.0438 Q717.9452,686.0438 718.5389,685.7781 Q719.1327,685.4969 719.7577,684.9188 L719.7577,687.6375 Z " fill="#000000"/><text fill="#000000" font-family="sans-serif" font-size="14" lengthAdjust="spacing" textLength="84.4033" x="737.2889" y="686.8436">FredFetcher</text><line style="stroke:#181818;stroke-width:0.5;" x1="564.91" x2="961.5711" y1="697.9969" y2="697.9969"/><rect fill="none" height="6" style="stroke:#C82930;stroke-width:1;" width="6" x="571.91" y="708.6453"/><text fill="#000000" font-family="sans-serif" font-size="14" lengthAdjust="spacing" textLength="109.1904" x="583.91" y="714.992">fred: FredClient</text><line style="stroke:#181818;stroke-width:0.5;" x1="564.91" x2="961.5711" y1="722.2938" y2="722.2938"/><ellipse cx="574.91" cy="735.9422" fill="#84BE84" rx="3" ry="3" style="stroke:#038048;stroke-width:1;"/><text fill="#000000" font-family="sans-serif" font-size="14" lengthAdjust="spacing" textLength="372.6611" x="583.91" y="739.2889">fetchData(seriesIds, startDate, endDate): DataFrame</text></g><!--class DataCleaner--><g class="entity" data-entity="DataCleaner" data-source-line="24" data-uid="ent0006" id="entity_DataCleaner"><rect fill="#F1F1F1" height="113.1875" rx="3.5" ry="3.5" style="stroke:#181818;stroke-width:0.5;" width="394.6006" x="565.94" y="502.7069"/><ellipse cx="715.2266" cy="518.7069" fill="#ADD1B2" rx="11" ry="11" style="stroke:#181818;stroke-width:1;"/><path d="M718.1954,524.3475 Q717.6172,524.6444 716.9766,524.785 Q716.336,524.9413 715.6329,524.9413 Q713.1329,524.9413 711.8047,523.3006 Q710.4922,521.6444 710.4922,518.5194 Q710.4922,515.3944 711.8047,513.7381 Q713.1329,512.0819 715.6329,512.0819 Q716.336,512.0819 716.9766,512.2381 Q717.6329,512.3944 718.1954,512.6913 L718.1954,515.41 Q717.5704,514.8319 716.9766,514.5663 Q716.3829,514.285 715.7579,514.285 Q714.4141,514.285 713.7266,515.3631 Q713.0391,516.4256 713.0391,518.5194 Q713.0391,520.6131 713.7266,521.6913 Q714.4141,522.7538 715.7579,522.7538 Q716.3829,522.7538 716.9766,522.4881 Q717.5704,522.2069 718.1954,521.6288 L718.1954,524.3475 Z " fill="#000000"/><text fill="#000000" font-family="sans-serif" font-size="14" lengthAdjust="spacing" textLength="87.5273" x="735.7266" y="523.5536">DataCleaner</text><line style="stroke:#181818;stroke-width:0.5;" x1="566.94" x2="959.5406" y1="534.7069" y2="534.7069"/><line style="stroke:#181818;stroke-width:0.5;" x1="566.94" x2="959.5406" y1="542.7069" y2="542.7069"/><ellipse cx="576.94" cy="556.3553" fill="#84BE84" rx="3" ry="3" style="stroke:#038048;stroke-width:1;"/><text fill="#000000" font-family="sans-serif" font-size="14" lengthAdjust="spacing" textLength="249.3955" x="585.94" y="559.702">cleanMarketData(data): DataFrame</text><ellipse cx="576.94" cy="572.6522" fill="#84BE84" rx="3" ry="3" style="stroke:#038048;stroke-width:1;"/><text fill="#000000" font-family="sans-serif" font-size="14" lengthAdjust="spacing" textLength="268.543" x="585.94" y="575.9989">cleanEconomicData(data): DataFrame</text><ellipse cx="576.94" cy="588.9491" fill="#84BE84" rx="3" ry="3" style="stroke:#038048;stroke-width:1;"/><text fill="#000000" font-family="sans-serif" font-size="14" lengthAdjust="spacing" textLength="368.6006" x="585.94" y="592.2957">alignFrequencies(marketData, economicData): tuple</text><ellipse cx="576.94" cy="605.2459" fill="#84BE84" rx="3" ry="3" style="stroke:#038048;stroke-width:1;"/><text fill="#000000" font-family="sans-serif" font-size="14" lengthAdjust="spacing" textLength="328.248" x="585.94" y="608.5926">createCombinedDataset(dataDict): DataFrame</text></g><!--class Tokenizer--><g class="entity" data-entity="Tokenizer" data-source-line="33" data-uid="ent0008" id="entity_Tokenizer"><rect fill="#F1F1F1" height="145.7813" rx="3.5" ry="3.5" style="stroke:#181818;stroke-width:0.5;" width="354.3096" x="1461.49" y="846.4069"/><ellipse cx="1600.2356" cy="862.4069" fill="#ADD1B2" rx="11" ry="11" style="stroke:#181818;stroke-width:1;"/><path d="M1603.2044,868.0475 Q1602.6262,868.3444 1601.9856,868.485 Q1601.345,868.6413 1600.6419,868.6413 Q1598.1419,868.6413 1596.8137,867.0006 Q1595.5012,865.3444 1595.5012,862.2194 Q1595.5012,859.0944 1596.8137,857.4381 Q1598.1419,855.7819 1600.6419,855.7819 Q1601.345,855.7819 1601.9856,855.9381 Q1602.6419,856.0944 1603.2044,856.3913 L1603.2044,859.11 Q1602.5794,858.5319 1601.9856,858.2663 Q1601.3919,857.985 1600.7669,857.985 Q1599.4231,857.985 1598.7356,859.0631 Q1598.0481,860.1256 1598.0481,862.2194 Q1598.0481,864.3131 1598.7356,865.3913 Q1599.4231,866.4538 1600.7669,866.4538 Q1601.3919,866.4538 1601.9856,866.1881 Q1602.5794,865.9069 1603.2044,865.3288 L1603.2044,868.0475 Z " fill="#000000"/><text fill="#000000" font-family="sans-serif" font-size="14" lengthAdjust="spacing" textLength="68.3184" x="1620.7356" y="867.2536">Tokenizer</text><line style="stroke:#181818;stroke-width:0.5;" x1="1462.49" x2="1814.7996" y1="878.4069" y2="878.4069"/><polygon fill="none" points="1472.49,887.0553,1476.49,891.0553,1472.49,895.0553,1468.49,891.0553" style="stroke:#B38D22;stroke-width:1;"/><text fill="#000000" font-family="sans-serif" font-size="14" lengthAdjust="spacing" textLength="88.4639" x="1481.49" y="895.402">numBins: int</text><polygon fill="none" points="1472.49,903.3522,1476.49,907.3522,1472.49,911.3522,1468.49,907.3522" style="stroke:#B38D22;stroke-width:1;"/><text fill="#000000" font-family="sans-serif" font-size="14" lengthAdjust="spacing" textLength="103.4209" x="1481.49" y="911.6989">method: string</text><polygon fill="none" points="1472.49,919.6491,1476.49,923.6491,1472.49,927.6491,1468.49,923.6491" style="stroke:#B38D22;stroke-width:1;"/><text fill="#000000" font-family="sans-serif" font-size="14" lengthAdjust="spacing" textLength="128.9668" x="1481.49" y="927.9957">contextLength: int</text><line style="stroke:#181818;stroke-width:0.5;" x1="1462.49" x2="1814.7996" y1="935.2975" y2="935.2975"/><ellipse cx="1472.49" cy="948.9459" fill="#84BE84" rx="3" ry="3" style="stroke:#038048;stroke-width:1;"/><text fill="#000000" font-family="sans-serif" font-size="14" lengthAdjust="spacing" textLength="134.251" x="1481.49" y="952.2926">fit(data): Tokenizer</text><ellipse cx="1472.49" cy="965.2428" fill="#84BE84" rx="3" ry="3" style="stroke:#038048;stroke-width:1;"/><text fill="#000000" font-family="sans-serif" font-size="14" lengthAdjust="spacing" textLength="146.4668" x="1481.49" y="968.5895">transform(data): dict</text><ellipse cx="1472.49" cy="981.5397" fill="#84BE84" rx="3" ry="3" style="stroke:#038048;stroke-width:1;"/><text fill="#000000" font-family="sans-serif" font-size="14" lengthAdjust="spacing" textLength="328.3096" x="1481.49" y="984.8864">inverseTransform(tokens, featureName): array</text></g><!--class AdvancedTokenizer--><g class="entity" data-entity="AdvancedTokenizer" data-source-line="42" data-uid="ent0009" id="entity_AdvancedTokenizer"><rect fill="#F1F1F1" height="80.5938" rx="3.5" ry="3.5" style="stroke:#181818;stroke-width:0.5;" width="229.6494" x="1960.72" y="878.9969"/><ellipse cx="2002.6897" cy="894.9969" fill="#ADD1B2" rx="11" ry="11" style="stroke:#181818;stroke-width:1;"/><path d="M2005.6584,900.6375 Q2005.0803,900.9344 2004.4397,901.075 Q2003.7991,901.2313 2003.0959,901.2313 Q2000.5959,901.2313 1999.2678,899.5906 Q1997.9553,897.9344 1997.9553,894.8094 Q1997.9553,891.6844 1999.2678,890.0281 Q2000.5959,888.3719 2003.0959,888.3719 Q2003.7991,888.3719 2004.4397,888.5281 Q2005.0959,888.6844 2005.6584,888.9813 L2005.6584,891.7 Q2005.0334,891.1219 2004.4397,890.8563 Q2003.8459,890.575 2003.2209,890.575 Q2001.8772,890.575 2001.1897,891.6531 Q2000.5022,892.7156 2000.5022,894.8094 Q2000.5022,896.9031 2001.1897,897.9813 Q2001.8772,899.0438 2003.2209,899.0438 Q2003.8459,899.0438 2004.4397,898.7781 Q2005.0334,898.4969 2005.6584,897.9188 L2005.6584,900.6375 Z " fill="#000000"/><text fill="#000000" font-family="sans-serif" font-size="14" lengthAdjust="spacing" textLength="137.7168" x="2022.6829" y="899.8436">AdvancedTokenizer</text><line style="stroke:#181818;stroke-width:0.5;" x1="1961.72" x2="2189.3694" y1="910.9969" y2="910.9969"/><line style="stroke:#181818;stroke-width:0.5;" x1="1961.72" x2="2189.3694" y1="918.9969" y2="918.9969"/><ellipse cx="1971.72" cy="932.6453" fill="#84BE84" rx="3" ry="3" style="stroke:#038048;stroke-width:1;"/><text fill="#000000" font-family="sans-serif" font-size="14" lengthAdjust="spacing" textLength="203.6494" x="1980.72" y="935.992">fit(data): AdvancedTokenizer</text><ellipse cx="1971.72" cy="948.9422" fill="#84BE84" rx="3" ry="3" style="stroke:#038048;stroke-width:1;"/><text fill="#000000" font-family="sans-serif" font-size="14" lengthAdjust="spacing" textLength="146.4668" x="1980.72" y="952.2889">transform(data): dict</text></g><!--class BaseForecaster--><g class="entity" data-entity="BaseForecaster" data-source-line="49" data-uid="ent0012" id="entity_BaseForecaster"><rect fill="#F1F1F1" height="96.8906" rx="3.5" ry="3.5" style="stroke:#181818;stroke-width:0.5;" width="274.3838" x="1030.38" y="347.8469"/><ellipse cx="1109.0685" cy="363.8469" fill="#A9DCDF" rx="11" ry="11" style="stroke:#181818;stroke-width:1;"/><path d="M1109.1779,359.1906 L1108.0216,364.2687 L1110.3497,364.2687 L1109.1779,359.1906 Z M1107.6935,356.9562 L1110.6779,356.9562 L1114.0372,369.3469 L1111.5841,369.3469 L1110.8185,366.2844 L1107.5372,366.2844 L1106.7872,369.3469 L1104.3497,369.3469 L1107.6935,356.9562 Z " fill="#000000"/><text fill="#000000" font-family="sans-serif" font-size="14" font-style="italic" lengthAdjust="spacing" textLength="108.5068" x="1129.5685" y="368.6936">BaseForecaster</text><line style="stroke:#181818;stroke-width:0.5;" x1="1031.38" x2="1303.7638" y1="379.8469" y2="379.8469"/><polygon fill="none" points="1041.38,388.4953,1045.38,392.4953,1041.38,396.4953,1037.38,392.4953" style="stroke:#B38D22;stroke-width:1;"/><text fill="#000000" font-family="sans-serif" font-size="14" lengthAdjust="spacing" textLength="146.501" x="1050.38" y="396.842">predictionLength: int</text><line style="stroke:#181818;stroke-width:0.5;" x1="1031.38" x2="1303.7638" y1="404.1437" y2="404.1437"/><ellipse cx="1041.38" cy="417.7922" fill="#84BE84" rx="3" ry="3" style="stroke:#038048;stroke-width:1;"/><text fill="#000000" font-family="sans-serif" font-size="14" lengthAdjust="spacing" textLength="248.3838" x="1050.38" y="421.1389">fit(data, targetCol): BaseForecaster</text><ellipse cx="1041.38" cy="434.0891" fill="#84BE84" rx="3" ry="3" style="stroke:#038048;stroke-width:1;"/><text fill="#000000" font-family="sans-serif" font-size="14" lengthAdjust="spacing" textLength="137.7988" x="1050.38" y="437.4357">predict(data): array</text></g><!--class NaiveForecaster--><g class="entity" data-entity="NaiveForecaster" data-source-line="55" data-uid="ent0013" id="entity_NaiveForecaster"><rect fill="#F1F1F1" height="48" rx="3.5" ry="3.5" style="stroke:#181818;stroke-width:0.5;" width="146.2559" x="1565.51" y="568.2969"/><ellipse cx="1580.51" cy="584.2969" fill="#ADD1B2" rx="11" ry="11" style="stroke:#181818;stroke-width:1;"/><path d="M1583.4788,589.9375 Q1582.9006,590.2344 1582.26,590.375 Q1581.6194,590.5313 1580.9163,590.5313 Q1578.4163,590.5313 1577.0881,588.8906 Q1575.7756,587.2344 1575.7756,584.1094 Q1575.7756,580.9844 1577.0881,579.3281 Q1578.4163,577.6719 1580.9163,577.6719 Q1581.6194,577.6719 1582.26,577.8281 Q1582.9163,577.9844 1583.4788,578.2813 L1583.4788,581 Q1582.8538,580.4219 1582.26,580.1563 Q1581.6663,579.875 1581.0413,579.875 Q1579.6975,579.875 1579.01,580.9531 Q1578.3225,582.0156 1578.3225,584.1094 Q1578.3225,586.2031 1579.01,587.2813 Q1579.6975,588.3438 1581.0413,588.3438 Q1581.6663,588.3438 1582.26,588.0781 Q1582.8538,587.7969 1583.4788,587.2188 L1583.4788,589.9375 Z " fill="#000000"/><text fill="#000000" font-family="sans-serif" font-size="14" lengthAdjust="spacing" textLength="114.2559" x="1594.51" y="589.1436">NaiveForecaster</text><line style="stroke:#181818;stroke-width:0.5;" x1="1566.51" x2="1710.7659" y1="600.2969" y2="600.2969"/><line style="stroke:#181818;stroke-width:0.5;" x1="1566.51" x2="1710.7659" y1="608.2969" y2="608.2969"/></g><!--class ARIMAForecaster--><g class="entity" data-entity="ARIMAForecaster" data-source-line="56" data-uid="ent0015" id="entity_ARIMAForecaster"><rect fill="#F1F1F1" height="48" rx="3.5" ry="3.5" style="stroke:#181818;stroke-width:0.5;" width="151.5059" x="1562.89" y="470.2969"/><ellipse cx="1577.89" cy="486.2969" fill="#ADD1B2" rx="11" ry="11" style="stroke:#181818;stroke-width:1;"/><path d="M1580.8588,491.9375 Q1580.2806,492.2344 1579.64,492.375 Q1578.9994,492.5313 1578.2963,492.5313 Q1575.7963,492.5313 1574.4681,490.8906 Q1573.1556,489.2344 1573.1556,486.1094 Q1573.1556,482.9844 1574.4681,481.3281 Q1575.7963,479.6719 1578.2963,479.6719 Q1578.9994,479.6719 1579.64,479.8281 Q1580.2963,479.9844 1580.8588,480.2813 L1580.8588,483 Q1580.2338,482.4219 1579.64,482.1563 Q1579.0463,481.875 1578.4213,481.875 Q1577.0775,481.875 1576.39,482.9531 Q1575.7025,484.0156 1575.7025,486.1094 Q1575.7025,488.2031 1576.39,489.2813 Q1577.0775,490.3438 1578.4213,490.3438 Q1579.0463,490.3438 1579.64,490.0781 Q1580.2338,489.7969 1580.8588,489.2188 L1580.8588,491.9375 Z " fill="#000000"/><text fill="#000000" font-family="sans-serif" font-size="14" lengthAdjust="spacing" textLength="119.5059" x="1591.89" y="491.1436">ARIMAForecaster</text><line style="stroke:#181818;stroke-width:0.5;" x1="1563.89" x2="1713.3959" y1="502.2969" y2="502.2969"/><line style="stroke:#181818;stroke-width:0.5;" x1="1563.89" x2="1713.3959" y1="510.2969" y2="510.2969"/></g><!--class VARForecaster--><g class="entity" data-entity="VARForecaster" data-source-line="57" data-uid="ent0017" id="entity_VARForecaster"><rect fill="#F1F1F1" height="48" rx="3.5" ry="3.5" style="stroke:#181818;stroke-width:0.5;" width="135.2979" x="1570.99" y="372.2969"/><ellipse cx="1585.99" cy="388.2969" fill="#ADD1B2" rx="11" ry="11" style="stroke:#181818;stroke-width:1;"/><path d="M1588.9588,393.9375 Q1588.3806,394.2344 1587.74,394.375 Q1587.0994,394.5313 1586.3963,394.5313 Q1583.8963,394.5313 1582.5681,392.8906 Q1581.2556,391.2344 1581.2556,388.1094 Q1581.2556,384.9844 1582.5681,383.3281 Q1583.8963,381.6719 1586.3963,381.6719 Q1587.0994,381.6719 1587.74,381.8281 Q1588.3963,381.9844 1588.9588,382.2813 L1588.9588,385 Q1588.3338,384.4219 1587.74,384.1563 Q1587.1463,383.875 1586.5213,383.875 Q1585.1775,383.875 1584.49,384.9531 Q1583.8025,386.0156 1583.8025,388.1094 Q1583.8025,390.2031 1584.49,391.2813 Q1585.1775,392.3438 1586.5213,392.3438 Q1587.1463,392.3438 1587.74,392.0781 Q1588.3338,391.7969 1588.9588,391.2188 L1588.9588,393.9375 Z " fill="#000000"/><text fill="#000000" font-family="sans-serif" font-size="14" lengthAdjust="spacing" textLength="103.2979" x="1599.99" y="393.1436">VARForecaster</text><line style="stroke:#181818;stroke-width:0.5;" x1="1571.99" x2="1705.2879" y1="404.2969" y2="404.2969"/><line style="stroke:#181818;stroke-width:0.5;" x1="1571.99" x2="1705.2879" y1="412.2969" y2="412.2969"/></g><!--class LSTMForecaster--><g class="entity" data-entity="LSTMForecaster" data-source-line="58" data-uid="ent0019" id="entity_LSTMForecaster"><rect fill="#F1F1F1" height="48" rx="3.5" ry="3.5" style="stroke:#181818;stroke-width:0.5;" width="143.7334" x="1566.77" y="274.2969"/><ellipse cx="1581.77" cy="290.2969" fill="#ADD1B2" rx="11" ry="11" style="stroke:#181818;stroke-width:1;"/><path d="M1584.7388,295.9375 Q1584.1606,296.2344 1583.52,296.375 Q1582.8794,296.5313 1582.1763,296.5313 Q1579.6763,296.5313 1578.3481,294.8906 Q1577.0356,293.2344 1577.0356,290.1094 Q1577.0356,286.9844 1578.3481,285.3281 Q1579.6763,283.6719 1582.1763,283.6719 Q1582.8794,283.6719 1583.52,283.8281 Q1584.1763,283.9844 1584.7388,284.2813 L1584.7388,287 Q1584.1138,286.4219 1583.52,286.1563 Q1582.9263,285.875 1582.3013,285.875 Q1580.9575,285.875 1580.27,286.9531 Q1579.5825,288.0156 1579.5825,290.1094 Q1579.5825,292.2031 1580.27,293.2813 Q1580.9575,294.3438 1582.3013,294.3438 Q1582.9263,294.3438 1583.52,294.0781 Q1584.1138,293.7969 1584.7388,293.2188 L1584.7388,295.9375 Z " fill="#000000"/><text fill="#000000" font-family="sans-serif" font-size="14" lengthAdjust="spacing" textLength="111.7334" x="1595.77" y="295.1436">LSTMForecaster</text><line style="stroke:#181818;stroke-width:0.5;" x1="1567.77" x2="1709.5034" y1="306.2969" y2="306.2969"/><line style="stroke:#181818;stroke-width:0.5;" x1="1567.77" x2="1709.5034" y1="314.2969" y2="314.2969"/></g><!--class LinearForecaster--><g class="entity" data-entity="LinearForecaster" data-source-line="59" data-uid="ent0021" id="entity_LinearForecaster"><rect fill="#F1F1F1" height="48" rx="3.5" ry="3.5" style="stroke:#181818;stroke-width:0.5;" width="149.9268" x="1563.68" y="176.2969"/><ellipse cx="1578.68" cy="192.2969" fill="#ADD1B2" rx="11" ry="11" style="stroke:#181818;stroke-width:1;"/><path d="M1581.6488,197.9375 Q1581.0706,198.2344 1580.43,198.375 Q1579.7894,198.5313 1579.0863,198.5313 Q1576.5863,198.5313 1575.2581,196.8906 Q1573.9456,195.2344 1573.9456,192.1094 Q1573.9456,188.9844 1575.2581,187.3281 Q1576.5863,185.6719 1579.0863,185.6719 Q1579.7894,185.6719 1580.43,185.8281 Q1581.0863,185.9844 1581.6488,186.2813 L1581.6488,189 Q1581.0238,188.4219 1580.43,188.1563 Q1579.8363,187.875 1579.2113,187.875 Q1577.8675,187.875 1577.18,188.9531 Q1576.4925,190.0156 1576.4925,192.1094 Q1576.4925,194.2031 1577.18,195.2813 Q1577.8675,196.3438 1579.2113,196.3438 Q1579.8363,196.3438 1580.43,196.0781 Q1581.0238,195.7969 1581.6488,195.2188 L1581.6488,197.9375 Z " fill="#000000"/><text fill="#000000" font-family="sans-serif" font-size="14" lengthAdjust="spacing" textLength="117.9268" x="1592.68" y="197.1436">LinearForecaster</text><line style="stroke:#181818;stroke-width:0.5;" x1="1564.68" x2="1712.6068" y1="208.2969" y2="208.2969"/><line style="stroke:#181818;stroke-width:0.5;" x1="1564.68" x2="1712.6068" y1="216.2969" y2="216.2969"/></g><!--class TCNForecaster--><g class="entity" data-entity="TCNForecaster" data-source-line="60" data-uid="ent0023" id="entity_TCNForecaster"><rect fill="#F1F1F1" height="48" rx="3.5" ry="3.5" style="stroke:#181818;stroke-width:0.5;" width="135.2158" x="1571.03" y="78.2969"/><ellipse cx="1586.03" cy="94.2969" fill="#ADD1B2" rx="11" ry="11" style="stroke:#181818;stroke-width:1;"/><path d="M1588.9988,99.9375 Q1588.4206,100.2344 1587.78,100.375 Q1587.1394,100.5313 1586.4363,100.5313 Q1583.9363,100.5313 1582.6081,98.8906 Q1581.2956,97.2344 1581.2956,94.1094 Q1581.2956,90.9844 1582.6081,89.3281 Q1583.9363,87.6719 1586.4363,87.6719 Q1587.1394,87.6719 1587.78,87.8281 Q1588.4363,87.9844 1588.9988,88.2813 L1588.9988,91 Q1588.3738,90.4219 1587.78,90.1563 Q1587.1863,89.875 1586.5613,89.875 Q1585.2175,89.875 1584.53,90.9531 Q1583.8425,92.0156 1583.8425,94.1094 Q1583.8425,96.2031 1584.53,97.2813 Q1585.2175,98.3438 1586.5613,98.3438 Q1587.1863,98.3438 1587.78,98.0781 Q1588.3738,97.7969 1588.9988,97.2188 L1588.9988,99.9375 Z " fill="#000000"/><text fill="#000000" font-family="sans-serif" font-size="14" lengthAdjust="spacing" textLength="103.2158" x="1600.03" y="99.1436">TCNForecaster</text><line style="stroke:#181818;stroke-width:0.5;" x1="1572.03" x2="1705.2458" y1="110.2969" y2="110.2969"/><line style="stroke:#181818;stroke-width:0.5;" x1="1572.03" x2="1705.2458" y1="118.2969" y2="118.2969"/></g><!--class ChronosForecaster--><g class="entity" data-entity="ChronosForecaster" data-source-line="62" data-uid="ent0025" id="entity_ChronosForecaster"><rect fill="#F1F1F1" height="113.1875" rx="3.5" ry="3.5" style="stroke:#181818;stroke-width:0.5;" width="297.9951" x="1018.57" y="502.7069"/><ellipse cx="1097.2585" cy="518.7069" fill="#ADD1B2" rx="11" ry="11" style="stroke:#181818;stroke-width:1;"/><path d="M1100.2272,524.3475 Q1099.6491,524.6444 1099.0085,524.785 Q1098.3679,524.9413 1097.6647,524.9413 Q1095.1647,524.9413 1093.8366,523.3006 Q1092.5241,521.6444 1092.5241,518.5194 Q1092.5241,515.3944 1093.8366,513.7381 Q1095.1647,512.0819 1097.6647,512.0819 Q1098.3679,512.0819 1099.0085,512.2381 Q1099.6647,512.3944 1100.2272,512.6913 L1100.2272,515.41 Q1099.6022,514.8319 1099.0085,514.5663 Q1098.4147,514.285 1097.7897,514.285 Q1096.446,514.285 1095.7585,515.3631 Q1095.071,516.4256 1095.071,518.5194 Q1095.071,520.6131 1095.7585,521.6913 Q1096.446,522.7538 1097.7897,522.7538 Q1098.4147,522.7538 1099.0085,522.4881 Q1099.6022,522.2069 1100.2272,521.6288 L1100.2272,524.3475 Z " fill="#000000"/><text fill="#000000" font-family="sans-serif" font-size="14" lengthAdjust="spacing" textLength="132.1182" x="1117.7585" y="523.5536">ChronosForecaster</text><line style="stroke:#181818;stroke-width:0.5;" x1="1019.57" x2="1315.5651" y1="534.7069" y2="534.7069"/><rect fill="none" height="6" style="stroke:#C82930;stroke-width:1;" width="6" x="1026.57" y="545.3553"/><text fill="#000000" font-family="sans-serif" font-size="14" lengthAdjust="spacing" textLength="150.999" x="1038.57" y="551.702">modelPipeline: object</text><rect fill="none" height="6" style="stroke:#C82930;stroke-width:1;" width="6" x="1026.57" y="561.6522"/><text fill="#000000" font-family="sans-serif" font-size="14" lengthAdjust="spacing" textLength="142.7412" x="1038.57" y="567.9989">tokenizer: Tokenizer</text><line style="stroke:#181818;stroke-width:0.5;" x1="1019.57" x2="1315.5651" y1="575.3006" y2="575.3006"/><ellipse cx="1029.57" cy="588.9491" fill="#84BE84" rx="3" ry="3" style="stroke:#038048;stroke-width:1;"/><text fill="#000000" font-family="sans-serif" font-size="14" lengthAdjust="spacing" textLength="271.9951" x="1038.57" y="592.2957">fit(data, targetCol): ChronosForecaster</text><ellipse cx="1029.57" cy="605.2459" fill="#84BE84" rx="3" ry="3" style="stroke:#038048;stroke-width:1;"/><text fill="#000000" font-family="sans-serif" font-size="14" lengthAdjust="spacing" textLength="209.8428" x="1038.57" y="608.5926">forecastZeroShot(data): array</text></g><!--class ForecastEvaluator--><g class="entity" data-entity="ForecastEvaluator" data-source-line="71" data-uid="ent0027" id="entity_ForecastEvaluator"><rect fill="#F1F1F1" height="80.5938" rx="3.5" ry="3.5" style="stroke:#181818;stroke-width:0.5;" width="544.1504" x="1366.57" y="690.9969"/><ellipse cx="1570.9406" cy="706.9969" fill="#ADD1B2" rx="11" ry="11" style="stroke:#181818;stroke-width:1;"/><path d="M1573.9094,712.6375 Q1573.3312,712.9344 1572.6906,713.075 Q1572.05,713.2313 1571.3469,713.2313 Q1568.8469,713.2313 1567.5187,711.5906 Q1566.2062,709.9344 1566.2062,706.8094 Q1566.2062,703.6844 1567.5187,702.0281 Q1568.8469,700.3719 1571.3469,700.3719 Q1572.05,700.3719 1572.6906,700.5281 Q1573.3469,700.6844 1573.9094,700.9813 L1573.9094,703.7 Q1573.2844,703.1219 1572.6906,702.8563 Q1572.0969,702.575 1571.4719,702.575 Q1570.1281,702.575 1569.4406,703.6531 Q1568.7531,704.7156 1568.7531,706.8094 Q1568.7531,708.9031 1569.4406,709.9813 Q1570.1281,711.0438 1571.4719,711.0438 Q1572.0969,711.0438 1572.6906,710.7781 Q1573.2844,710.4969 1573.9094,709.9188 L1573.9094,712.6375 Z " fill="#000000"/><text fill="#000000" font-family="sans-serif" font-size="14" lengthAdjust="spacing" textLength="126.9092" x="1591.4406" y="711.8436">ForecastEvaluator</text><line style="stroke:#181818;stroke-width:0.5;" x1="1367.57" x2="1909.7204" y1="722.9969" y2="722.9969"/><line style="stroke:#181818;stroke-width:0.5;" x1="1367.57" x2="1909.7204" y1="730.9969" y2="730.9969"/><ellipse cx="1377.57" cy="744.6453" fill="#84BE84" rx="3" ry="3" style="stroke:#038048;stroke-width:1;"/><text fill="#000000" font-family="sans-serif" font-size="14" lengthAdjust="spacing" textLength="344.0801" x="1386.57" y="747.992">evaluatePointForecast(yTrue, yPred, yTrain): dict</text><ellipse cx="1377.57" cy="760.9422" fill="#84BE84" rx="3" ry="3" style="stroke:#038048;stroke-width:1;"/><text fill="#000000" font-family="sans-serif" font-size="14" lengthAdjust="spacing" textLength="518.1504" x="1386.57" y="764.2889">evaluateProbabilisticForecast(yTrue, yPredQuantiles, quantileLevels): dict</text></g><!--reverse link Tokenizer to AdvancedTokenizer--><g class="link" data-entity-1="Tokenizer" data-entity-2="AdvancedTokenizer" data-source-line="43" data-uid="lnk10" id="link_Tokenizer_AdvancedTokenizer"><path d="M1834.03,919.2969 C1882.73,919.2969 1916.25,919.2969 1960.44,919.2969" fill="none" id="Tokenizer-backto-AdvancedTokenizer" style="stroke:#454645;stroke-width:1;"/><polygon fill="none" points="1816.03,919.2969,1834.03,925.2969,1834.03,913.2969,1816.03,919.2969" style="stroke:#454645;stroke-width:1;"/></g><!--reverse link BaseForecaster to NaiveForecaster--><g class="link" data-entity-1="BaseForecaster" data-entity-2="NaiveForecaster" data-source-line="55" data-uid="lnk14" id="link_BaseForecaster_NaiveForecaster"><path d="M1323.24,440.6669 C1340.01,440.6669 1333.37,440.6669 1333.37,440.6669 C1333.37,440.6669 1333.37,592.0969 1333.37,592.0969 C1333.37,592.0969 1474.8,592.0969 1565.13,592.0969" fill="none" id="BaseForecaster-backto-NaiveForecaster" style="stroke:#454645;stroke-width:1;"/><polygon fill="none" points="1305.24,440.6669,1323.24,446.6669,1323.24,434.6669,1305.24,440.6669" style="stroke:#454645;stroke-width:1;"/></g><!--reverse link BaseForecaster to NaiveForecaster--><g class="link" data-entity-1="BaseForecaster" data-entity-2="NaiveForecaster" data-source-line="88" data-uid="lnk35" id="link_BaseForecaster_NaiveForecaster"><path codeLine="88" d="M1323.18,436.5969 C1349.15,436.5969 1350.37,436.5969 1350.37,436.5969 C1350.37,436.5969 1350.37,580.1969 1350.37,580.1969 C1350.37,580.1969 1479.74,580.1969 1565.15,580.1969" fill="none" id="BaseForecaster-backto-NaiveForecaster-1" style="stroke:#454645;stroke-width:1;"/><polygon fill="none" points="1305.18,436.5969,1323.18,442.5969,1323.18,430.5969,1305.18,436.5969" style="stroke:#454645;stroke-width:1;"/></g><!--reverse link BaseForecaster to ARIMAForecaster--><g class="link" data-entity-1="BaseForecaster" data-entity-2="ARIMAForecaster" data-source-line="56" data-uid="lnk16" id="link_BaseForecaster_ARIMAForecaster"><path d="M1322.97,428.4469 C1454.92,428.4469 1616.37,428.4469 1616.37,428.4469 C1616.37,428.4469 1616.37,451.3569 1616.37,470.1469" fill="none" id="BaseForecaster-backto-ARIMAForecaster" style="stroke:#454645;stroke-width:1;"/><polygon fill="none" points="1304.97,428.4469,1322.97,434.4469,1322.97,422.4469,1304.97,428.4469" style="stroke:#454645;stroke-width:1;"/></g><!--reverse link BaseForecaster to ARIMAForecaster--><g class="link" data-entity-1="BaseForecaster" data-entity-2="ARIMAForecaster" data-source-line="89" data-uid="lnk36" id="link_BaseForecaster_ARIMAForecaster"><path codeLine="89" d="M1323.12,424.3669 C1469.23,424.3669 1661.37,424.3669 1661.37,424.3669 C1661.37,424.3669 1661.37,449.6769 1661.37,469.8369" fill="none" id="BaseForecaster-backto-ARIMAForecaster-1" style="stroke:#454645;stroke-width:1;"/><polygon fill="none" points="1305.12,424.3669,1323.12,430.3669,1323.12,418.3669,1305.12,424.3669" style="stroke:#454645;stroke-width:1;"/></g><!--reverse link BaseForecaster to VARForecaster--><g class="link" data-entity-1="BaseForecaster" data-entity-2="VARForecaster" data-source-line="57" data-uid="lnk18" id="link_BaseForecaster_VARForecaster"><path d="M1323.09,404.2969 C1410.4,404.2969 1501.58,404.2969 1570.74,404.2969" fill="none" id="BaseForecaster-backto-VARForecaster" style="stroke:#454645;stroke-width:1;"/><polygon fill="none" points="1305.09,404.2969,1323.09,410.2969,1323.09,398.2969,1305.09,404.2969" style="stroke:#454645;stroke-width:1;"/></g><!--reverse link BaseForecaster to VARForecaster--><g class="link" data-entity-1="BaseForecaster" data-entity-2="VARForecaster" data-source-line="90" data-uid="lnk37" id="link_BaseForecaster_VARForecaster"><path codeLine="90" d="M1323.09,388.2969 C1410.4,388.2969 1501.58,388.2969 1570.74,388.2969" fill="none" id="BaseForecaster-backto-VARForecaster-1" style="stroke:#454645;stroke-width:1;"/><polygon fill="none" points="1305.09,388.2969,1323.09,394.2969,1323.09,382.2969,1305.09,388.2969" style="stroke:#454645;stroke-width:1;"/></g><!--reverse link BaseForecaster to LSTMForecaster--><g class="link" data-entity-1="BaseForecaster" data-entity-2="LSTMForecaster" data-source-line="58" data-uid="lnk20" id="link_BaseForecaster_LSTMForecaster"><path d="M1322.97,355.9969 C1454.92,355.9969 1616.37,355.9969 1616.37,355.9969 C1616.37,355.9969 1616.37,338.4969 1616.37,322.7669" fill="none" id="BaseForecaster-backto-LSTMForecaster" style="stroke:#454645;stroke-width:1;"/><polygon fill="none" points="1304.97,355.9969,1322.97,361.9969,1322.97,349.9969,1304.97,355.9969" style="stroke:#454645;stroke-width:1;"/></g><!--reverse link BaseForecaster to LSTMForecaster--><g class="link" data-entity-1="BaseForecaster" data-entity-2="LSTMForecaster" data-source-line="91" data-uid="lnk38" id="link_BaseForecaster_LSTMForecaster"><path codeLine="91" d="M1323.12,364.1469 C1469.23,364.1469 1661.37,364.1469 1661.37,364.1469 C1661.37,364.1469 1661.37,341.2369 1661.37,322.4469" fill="none" id="BaseForecaster-backto-LSTMForecaster-1" style="stroke:#454645;stroke-width:1;"/><polygon fill="none" points="1305.12,364.1469,1323.12,370.1469,1323.12,358.1469,1305.12,364.1469" style="stroke:#454645;stroke-width:1;"/></g><!--reverse link BaseForecaster to LinearForecaster--><g class="link" data-entity-1="BaseForecaster" data-entity-2="LinearForecaster" data-source-line="59" data-uid="lnk22" id="link_BaseForecaster_LinearForecaster"><path d="M1195.37,329.4369 C1195.37,269.0869 1195.37,192.2969 1195.37,192.2969 C1195.37,192.2969 1436.66,192.2969 1563.19,192.2969" fill="none" id="BaseForecaster-backto-LinearForecaster" style="stroke:#454645;stroke-width:1;"/><polygon fill="none" points="1195.37,347.4369,1201.37,329.4369,1189.37,329.4369,1195.37,347.4369" style="stroke:#454645;stroke-width:1;"/></g><!--reverse link BaseForecaster to LinearForecaster--><g class="link" data-entity-1="BaseForecaster" data-entity-2="LinearForecaster" data-source-line="92" data-uid="lnk39" id="link_BaseForecaster_LinearForecaster"><path codeLine="92" d="M1250.37,329.3969 C1250.37,273.6869 1250.37,208.2969 1250.37,208.2969 C1250.37,208.2969 1450.41,208.2969 1563.32,208.2969" fill="none" id="BaseForecaster-backto-LinearForecaster-1" style="stroke:#454645;stroke-width:1;"/><polygon fill="none" points="1250.37,347.3969,1256.37,329.3969,1244.37,329.3969,1250.37,347.3969" style="stroke:#454645;stroke-width:1;"/></g><!--reverse link BaseForecaster to TCNForecaster--><g class="link" data-entity-1="BaseForecaster" data-entity-2="TCNForecaster" data-source-line="60" data-uid="lnk24" id="link_BaseForecaster_TCNForecaster"><path d="M1085.37,329.4369 C1085.37,243.9669 1085.37,94.2969 1085.37,94.2969 C1085.37,94.2969 1423.06,94.2969 1570.8,94.2969" fill="none" id="BaseForecaster-backto-TCNForecaster" style="stroke:#454645;stroke-width:1;"/><polygon fill="none" points="1085.37,347.4369,1091.37,329.4369,1079.37,329.4369,1085.37,347.4369" style="stroke:#454645;stroke-width:1;"/></g><!--reverse link BaseForecaster to TCNForecaster--><g class="link" data-entity-1="BaseForecaster" data-entity-2="TCNForecaster" data-source-line="93" data-uid="lnk40" id="link_BaseForecaster_TCNForecaster"><path codeLine="93" d="M1140.37,329.4569 C1140.37,247.7669 1140.37,110.2969 1140.37,110.2969 C1140.37,110.2969 1434.31,110.2969 1570.66,110.2969" fill="none" id="BaseForecaster-backto-TCNForecaster-1" style="stroke:#454645;stroke-width:1;"/><polygon fill="none" points="1140.37,347.4569,1146.37,329.4569,1134.37,329.4569,1140.37,347.4569" style="stroke:#454645;stroke-width:1;"/></g><!--reverse link DataFetcher to YahooFinanceFetcher--><g class="link" data-entity-1="DataFetcher" data-entity-2="YahooFinanceFetcher" data-source-line="78" data-uid="lnk28" id="link_DataFetcher_YahooFinanceFetcher"><path codeLine="78" d="M526.21,750.6669 C650.54,750.6669 763.37,750.6669 763.37,750.6669 C763.37,750.6669 763.37,774.5569 763.37,795.8269" fill="none" id="DataFetcher-backto-YahooFinanceFetcher" style="stroke:#454645;stroke-width:1;"/><polygon fill="#454645" points="514.21,750.6669,520.21,754.6669,526.21,750.6669,520.21,746.6669,514.21,750.6669" style="stroke:#454645;stroke-width:1;"/></g><!--reverse link DataFetcher to FredFetcher--><g class="link" data-entity-1="DataFetcher" data-entity-2="FredFetcher" data-source-line="79" data-uid="lnk29" id="link_DataFetcher_FredFetcher"><path codeLine="79" d="M526.15,706.2969 C542.78,706.2969 547.42,706.2969 563.76,706.2969" fill="none" id="DataFetcher-backto-FredFetcher" style="stroke:#454645;stroke-width:1;"/><polygon fill="#454645" points="514.15,706.2969,520.15,710.2969,526.15,706.2969,520.15,702.2969,514.15,706.2969" style="stroke:#454645;stroke-width:1;"/></g><!--reverse link ChronosForecaster to Tokenizer--><g class="link" data-entity-1="ChronosForecaster" data-entity-2="Tokenizer" data-source-line="81" data-uid="lnk30" id="link_ChronosForecaster_Tokenizer"><path codeLine="81" d="M1168.37,628.2469 C1168.37,713.1669 1168.37,851.0869 1168.37,851.0869 C1168.37,851.0869 1327.94,851.0869 1461.19,851.0869" fill="none" id="ChronosForecaster-backto-Tokenizer" style="stroke:#454645;stroke-width:1;"/><polygon fill="none" points="1168.37,616.2469,1164.37,622.2469,1168.37,628.2469,1172.37,622.2469,1168.37,616.2469" style="stroke:#454645;stroke-width:1;"/></g><!--link DataFetcher to DataCleaner--><g class="link" data-entity-1="DataFetcher" data-entity-2="DataCleaner" data-source-line="83" data-uid="lnk31" id="link_DataFetcher_DataCleaner"><path codeLine="83" d="M514.21,661.9269 C638.54,661.9269 763.37,661.9269 763.37,661.9269 C763.37,661.9269 763.37,645.9369 763.37,622.3169" fill="none" id="DataFetcher-to-DataCleaner" style="stroke:#454645;stroke-width:1;"/><polygon fill="#454645" points="763.37,616.3169,759.37,625.3169,763.37,621.3169,767.37,625.3169,763.37,616.3169" style="stroke:#454645;stroke-width:1;"/></g><!--link DataCleaner to Tokenizer--><g class="link" data-entity-1="DataCleaner" data-entity-2="Tokenizer" data-source-line="84" data-uid="lnk32" id="link_DataCleaner_Tokenizer"><path codeLine="84" d="M960.6,578.1569 C979.25,578.1569 991.37,578.1569 991.37,578.1569 C991.37,578.1569 991.37,855.7669 991.37,855.7669 C991.37,855.7669 1263.71,855.7669 1455.34,855.7669" fill="none" id="DataCleaner-to-Tokenizer" style="stroke:#454645;stroke-width:1;"/><polygon fill="#454645" points="1461.34,855.7669,1452.34,851.7669,1456.34,855.7669,1452.34,859.7669,1461.34,855.7669" style="stroke:#454645;stroke-width:1;"/></g><!--link DataCleaner to BaseForecaster--><g class="link" data-entity-1="DataCleaner" data-entity-2="BaseForecaster" data-source-line="85" data-uid="lnk33" id="link_DataCleaner_BaseForecaster"><path codeLine="85" d="M763.37,502.2869 C763.37,455.2869 763.37,396.2969 763.37,396.2969 C763.37,396.2969 906.74,396.2969 1023.88,396.2969" fill="none" id="DataCleaner-to-BaseForecaster" style="stroke:#454645;stroke-width:1;"/><polygon fill="#454645" points="1029.88,396.2969,1020.88,392.2969,1024.88,396.2969,1020.88,400.2969,1029.88,396.2969" style="stroke:#454645;stroke-width:1;"/></g><!--link DataCleaner to ChronosForecaster--><g class="link" data-entity-1="DataCleaner" data-entity-2="ChronosForecaster" data-source-line="86" data-uid="lnk34" id="link_DataCleaner_ChronosForecaster"><path codeLine="86" d="M960.96,540.4369 C980.19,540.4369 993.47,540.4369 1012.11,540.4369" fill="none" id="DataCleaner-to-ChronosForecaster" style="stroke:#454645;stroke-width:1;"/><polygon fill="#454645" points="1018.11,540.4369,1009.11,536.4369,1013.11,540.4369,1009.11,544.4369,1018.11,540.4369" style="stroke:#454645;stroke-width:1;"/></g><!--link ChronosForecaster to ForecastEvaluator--><g class="link" data-entity-1="ChronosForecaster" data-entity-2="ForecastEvaluator" data-source-line="95" data-uid="lnk41" id="link_ChronosForecaster_ForecastEvaluator"><path codeLine="95" d="M1316.99,603.9969 C1377.06,603.9969 1432.37,603.9969 1432.37,603.9969 C1432.37,603.9969 1432.37,647.4069 1432.37,684.6669" fill="none" id="ChronosForecaster-to-ForecastEvaluator" style="stroke:#454645;stroke-width:1;"/><polygon fill="#454645" points="1432.37,690.6669,1436.37,681.6669,1432.37,685.6669,1428.37,681.6669,1432.37,690.6669" style="stroke:#454645;stroke-width:1;"/></g><!--link BaseForecaster to ForecastEvaluator--><g class="link" data-entity-1="BaseForecaster" data-entity-2="ForecastEvaluator" data-source-line="96" data-uid="lnk42" id="link_BaseForecaster_ForecastEvaluator"><path codeLine="96" d="M1304.98,432.5169 C1395.87,432.5169 1498.37,432.5169 1498.37,432.5169 C1498.37,432.5169 1498.37,602.9969 1498.37,684.6869" fill="none" id="BaseForecaster-to-ForecastEvaluator" style="stroke:#454645;stroke-width:1;"/><polygon fill="#454645" points="1498.37,690.6869,1502.37,681.6869,1498.37,685.6869,1494.37,681.6869,1498.37,690.6869" style="stroke:#454645;stroke-width:1;"/></g><!--SRC=[bLNDRXCn4BxlKmpjWGADn8LBXP3Ij9Kg9L588YIuERkJh8dNtjgJY02LU0YUa2TXlFLkzW_QNfBr-FFCDpFVs2yenGnXBrTMQ8hSLkfSM961aXhfa2COIwcfRKnDWWlCuTtRcd4kz3OO5Qu9o82LcvGWaHPZaaP794aXt1XU2qTIRs2c1AsDpU3FhzymKi8vk99Ym_wYA1VnLcmGJgu42HYB0zeJ-141n0yujjuWnIdQmWemW8D8ZGd62_XShAGMEiPW3BYrnQI2tHmNnVORMFlLK2aVuYmJTekqE6GheznvSNI1LY9_EnAM68JdW3hn7wykEDsOsCzzL37juH4OXr1575T6wFLQPCjbmQRh6lUg29xXGrOZ9L5JDr91_pPvPYnl7YaKkaO_zkj9KQ72TS8_BGyLx3esscGo_XzGABdHJFrkXpfcag7w7iOCQmxuBEroLGMmoDn79bknPdqUmY4LGQwu7PsSxclgcbdChOdHEHPaNM1BiqKjlrVPdeBUPPTIkmkGeQgda26F1fVRaUNZmSWy2R_H6FM6qYEQUo2fpBpo7hQ8Xy_vKIW1GKT-J-ezMeVB2aB-i1SZPxspEEMy-8ImLXoQFHicUw-wv9WBy-9ETxDhaEiSUuHaiw8JlXvKLKonujg8c0AZI-vCUGFKIfkpN6LnI_oxQkV0QjqWZOpYq4r70HhSbFHwAZ8LSbydKDQZuouKS7ux6JuT_cauVpful5XEde5cPGlxTFnoD7qSNA57gUNXSftE323ptPp9tBSKBy2ilc8GvW2er4TNp_rDwuGfqS7m1QrPfAQdWNM1NU-5sWalblgybax3hZag6nyiE3CigX9sTbZQ7Tzx1xu04lxZwPAwENVLEMjMOYMLv4ShxZt_SSTFfrJ-KRWBdsFSetAj6Na9SrG5SvVAt4NrH-prOD3xPBKnzVSgwlRDCEJOZCRfmU13_HQFwZUwtpiUQ- -qPDFUxhOrQitv-vzCgpLxlPZMmFLY6bFMYsYELZ-aDK-zeCOGzLNRPzyHNjjLB-Wl]--></g></svg>
