<svg xmlns="http://www.w3.org/2000/svg" xmlns:xlink="http://www.w3.org/1999/xlink" contentStyleType="text/css" data-diagram-type="DESCRIPTION" height="392px" preserveAspectRatio="none" style="width:928px;height:392px;background:#FFFFFF;" version="1.1" viewBox="0 0 928 392" width="928px" zoomAndPan="magnify"><title>Architecture - Forecasting Platform</title><defs/><g><g class="title" data-source-line="4"><text fill="#000000" font-family="sans-serif" font-size="14" font-weight="bold" lengthAdjust="spacing" textLength="280.3213" x="317.0733" y="22.9951">Architecture - Forecasting Platform</text></g><!--entity Main--><g class="entity" data-entity="Main" data-source-line="6" data-uid="ent0002" id="entity_Main"><rect fill="#F1F1F1" height="46.2969" rx="3.5" ry="3.5" style="stroke:#181818;stroke-width:0.5;" width="73.4209" x="7" y="340.2969"/><rect fill="#F1F1F1" height="10" style="stroke:#181818;stroke-width:0.5;" width="15" x="60.4209" y="345.2969"/><rect fill="#F1F1F1" height="2" style="stroke:#181818;stroke-width:0.5;" width="4" x="58.4209" y="347.2969"/><rect fill="#F1F1F1" height="2" style="stroke:#181818;stroke-width:0.5;" width="4" x="58.4209" y="351.2969"/><text fill="#000000" font-family="sans-serif" font-size="14" lengthAdjust="spacing" textLength="33.4209" x="22" y="373.292">Main</text></g><!--entity Fetcher--><g class="entity" data-entity="Fetcher" data-source-line="7" data-uid="ent0003" id="entity_Fetcher"><rect fill="#F1F1F1" height="46.2969" rx="3.5" ry="3.5" style="stroke:#181818;stroke-width:0.5;" width="93.0947" x="140.42" y="259.2969"/><rect fill="#F1F1F1" height="10" style="stroke:#181818;stroke-width:0.5;" width="15" x="213.5147" y="264.2969"/><rect fill="#F1F1F1" height="2" style="stroke:#181818;stroke-width:0.5;" width="4" x="211.5147" y="266.2969"/><rect fill="#F1F1F1" height="2" style="stroke:#181818;stroke-width:0.5;" width="4" x="211.5147" y="270.2969"/><text fill="#000000" font-family="sans-serif" font-size="14" lengthAdjust="spacing" textLength="53.0947" x="155.42" y="292.292">Fetcher</text></g><!--entity Cleaner--><g class="entity" data-entity="Cleaner" data-source-line="8" data-uid="ent0004" id="entity_Cleaner"><rect fill="#F1F1F1" height="46.2969" rx="3.5" ry="3.5" style="stroke:#181818;stroke-width:0.5;" width="94.0996" x="293.52" y="198.2969"/><rect fill="#F1F1F1" height="10" style="stroke:#181818;stroke-width:0.5;" width="15" x="367.6196" y="203.2969"/><rect fill="#F1F1F1" height="2" style="stroke:#181818;stroke-width:0.5;" width="4" x="365.6196" y="205.2969"/><rect fill="#F1F1F1" height="2" style="stroke:#181818;stroke-width:0.5;" width="4" x="365.6196" y="209.2969"/><text fill="#000000" font-family="sans-serif" font-size="14" lengthAdjust="spacing" textLength="54.0996" x="308.52" y="231.292">Cleaner</text></g><!--entity Tokenizer--><g class="entity" data-entity="Tokenizer" data-source-line="9" data-uid="ent0005" id="entity_Tokenizer"><rect fill="#F1F1F1" height="46.2969" rx="3.5" ry="3.5" style="stroke:#181818;stroke-width:0.5;" width="108.3184" x="665.64" y="44.2969"/><rect fill="#F1F1F1" height="10" style="stroke:#181818;stroke-width:0.5;" width="15" x="753.9584" y="49.2969"/><rect fill="#F1F1F1" height="2" style="stroke:#181818;stroke-width:0.5;" width="4" x="751.9584" y="51.2969"/><rect fill="#F1F1F1" height="2" style="stroke:#181818;stroke-width:0.5;" width="4" x="751.9584" y="55.2969"/><text fill="#000000" font-family="sans-serif" font-size="14" lengthAdjust="spacing" textLength="68.3184" x="680.64" y="77.292">Tokenizer</text></g><!--entity ChronosWrapper--><g class="entity" data-entity="ChronosWrapper" data-source-line="10" data-uid="ent0006" id="entity_ChronosWrapper"><rect fill="#F1F1F1" height="46.2969" rx="3.5" ry="3.5" style="stroke:#181818;stroke-width:0.5;" width="158.0225" x="447.62" y="117.2969"/><rect fill="#F1F1F1" height="10" style="stroke:#181818;stroke-width:0.5;" width="15" x="585.6425" y="122.2969"/><rect fill="#F1F1F1" height="2" style="stroke:#181818;stroke-width:0.5;" width="4" x="583.6425" y="124.2969"/><rect fill="#F1F1F1" height="2" style="stroke:#181818;stroke-width:0.5;" width="4" x="583.6425" y="128.2969"/><text fill="#000000" font-family="sans-serif" font-size="14" lengthAdjust="spacing" textLength="118.0225" x="462.62" y="150.292">ChronosWrapper</text></g><!--entity Baselines--><g class="entity" data-entity="Baselines" data-source-line="11" data-uid="ent0007" id="entity_Baselines"><rect fill="#F1F1F1" height="46.2969" rx="3.5" ry="3.5" style="stroke:#181818;stroke-width:0.5;" width="106.6504" x="473.3" y="198.2969"/><rect fill="#F1F1F1" height="10" style="stroke:#181818;stroke-width:0.5;" width="15" x="559.9504" y="203.2969"/><rect fill="#F1F1F1" height="2" style="stroke:#181818;stroke-width:0.5;" width="4" x="557.9504" y="205.2969"/><rect fill="#F1F1F1" height="2" style="stroke:#181818;stroke-width:0.5;" width="4" x="557.9504" y="209.2969"/><text fill="#000000" font-family="sans-serif" font-size="14" lengthAdjust="spacing" textLength="66.6504" x="488.3" y="231.292">Baselines</text></g><!--entity Metrics--><g class="entity" data-entity="Metrics" data-source-line="12" data-uid="ent0008" id="entity_Metrics"><rect fill="#F1F1F1" height="46.2969" rx="3.5" ry="3.5" style="stroke:#181818;stroke-width:0.5;" width="90.8184" x="674.39" y="127.2969"/><rect fill="#F1F1F1" height="10" style="stroke:#181818;stroke-width:0.5;" width="15" x="745.2084" y="132.2969"/><rect fill="#F1F1F1" height="2" style="stroke:#181818;stroke-width:0.5;" width="4" x="743.2084" y="134.2969"/><rect fill="#F1F1F1" height="2" style="stroke:#181818;stroke-width:0.5;" width="4" x="743.2084" y="138.2969"/><text fill="#000000" font-family="sans-serif" font-size="14" lengthAdjust="spacing" textLength="50.8184" x="689.39" y="160.292">Metrics</text></g><!--entity Config--><g class="entity" data-entity="Config" data-source-line="13" data-uid="ent0009" id="entity_Config"><rect fill="#F1F1F1" height="46.2969" rx="3.5" ry="3.5" style="stroke:#181818;stroke-width:0.5;" width="84.9189" x="144.51" y="340.2969"/><rect fill="#F1F1F1" height="10" style="stroke:#181818;stroke-width:0.5;" width="15" x="209.4289" y="345.2969"/><rect fill="#F1F1F1" height="2" style="stroke:#181818;stroke-width:0.5;" width="4" x="207.4289" y="347.2969"/><rect fill="#F1F1F1" height="2" style="stroke:#181818;stroke-width:0.5;" width="4" x="207.4289" y="351.2969"/><text fill="#000000" font-family="sans-serif" font-size="14" lengthAdjust="spacing" textLength="44.9189" x="159.51" y="373.292">Config</text></g><!--entity Logger--><g class="entity" data-entity="Logger" data-source-line="14" data-uid="ent0010" id="entity_Logger"><rect fill="#F1F1F1" height="46.2969" rx="3.5" ry="3.5" style="stroke:#181818;stroke-width:0.5;" width="88.5078" x="833.96" y="274.2969"/><rect fill="#F1F1F1" height="10" style="stroke:#181818;stroke-width:0.5;" width="15" x="902.4678" y="279.2969"/><rect fill="#F1F1F1" height="2" style="stroke:#181818;stroke-width:0.5;" width="4" x="900.4678" y="281.2969"/><rect fill="#F1F1F1" height="2" style="stroke:#181818;stroke-width:0.5;" width="4" x="900.4678" y="285.2969"/><text fill="#000000" font-family="sans-serif" font-size="14" lengthAdjust="spacing" textLength="48.5078" x="848.96" y="307.292">Logger</text></g><!--link Main to Config--><g class="link" data-entity-1="Main" data-entity-2="Config" data-source-line="16" data-uid="lnk11" id="link_Main_Config"><path d="M80.6,363.4469 C100,363.4469 117.89,363.4469 138.1,363.4469" fill="none" id="Main-to-Config" style="stroke:#454645;stroke-width:1;"/><polygon fill="#454645" points="144.1,363.4469,135.1,359.4469,139.1,363.4469,135.1,367.4469,144.1,363.4469" style="stroke:#454645;stroke-width:1;"/></g><!--link Main to Logger--><g class="link" data-entity-1="Main" data-entity-2="Logger" data-source-line="17" data-uid="lnk12" id="link_Main_Logger"><path d="M56.46,340.0369 C56.46,326.8969 56.46,313.0969 56.46,313.0969 C56.46,313.0969 656.65,313.0969 827.74,313.0969" fill="none" id="Main-to-Logger" style="stroke:#454645;stroke-width:1;"/><polygon fill="#454645" points="833.74,313.0969,824.74,309.0969,828.74,313.0969,824.74,317.0969,833.74,313.0969" style="stroke:#454645;stroke-width:1;"/></g><!--link Main to Fetcher--><g class="link" data-entity-1="Main" data-entity-2="Fetcher" data-source-line="18" data-uid="lnk13" id="link_Main_Fetcher"><path d="M32.46,340.0169 C32.46,316.0969 32.46,282.4469 32.46,282.4469 C32.46,282.4469 88.72,282.4469 134.19,282.4469" fill="none" id="Main-to-Fetcher" style="stroke:#454645;stroke-width:1;"/><polygon fill="#454645" points="140.19,282.4469,131.19,278.4469,135.19,282.4469,131.19,286.4469,140.19,282.4469" style="stroke:#454645;stroke-width:1;"/></g><!--link Fetcher to Cleaner--><g class="link" data-entity-1="Fetcher" data-entity-2="Cleaner" data-source-line="20" data-uid="lnk14" id="link_Fetcher_Cleaner"><path d="M233.86,266.7969 C274.04,266.7969 325.46,266.7969 325.46,266.7969 C325.46,266.7969 325.46,261.9869 325.46,250.9169" fill="none" id="Fetcher-to-Cleaner" style="stroke:#454645;stroke-width:1;"/><polygon fill="#454645" points="325.46,244.9169,321.46,253.9169,325.46,249.9169,329.46,253.9169,325.46,244.9169" style="stroke:#454645;stroke-width:1;"/></g><!--link Cleaner to Tokenizer--><g class="link" data-entity-1="Cleaner" data-entity-2="Tokenizer" data-source-line="21" data-uid="lnk15" id="link_Cleaner_Tokenizer"><path d="M341.46,198.0569 C341.46,154.9769 341.46,67.4469 341.46,67.4469 C341.46,67.4469 554.42,67.4469 659.19,67.4469" fill="none" id="Cleaner-to-Tokenizer" style="stroke:#454645;stroke-width:1;"/><polygon fill="#454645" points="665.19,67.4469,656.19,63.4469,660.19,67.4469,656.19,71.4469,665.19,67.4469" style="stroke:#454645;stroke-width:1;"/></g><!--link Cleaner to Baselines--><g class="link" data-entity-1="Cleaner" data-entity-2="Baselines" data-source-line="22" data-uid="lnk16" id="link_Cleaner_Baselines"><path d="M388,229.1669 C413.95,229.1669 440.18,229.1669 467.04,229.1669" fill="none" id="Cleaner-to-Baselines" style="stroke:#454645;stroke-width:1;"/><polygon fill="#454645" points="473.04,229.1669,464.04,225.1669,468.04,229.1669,464.04,233.1669,473.04,229.1669" style="stroke:#454645;stroke-width:1;"/></g><!--link Cleaner to ChronosWrapper--><g class="link" data-entity-1="Cleaner" data-entity-2="ChronosWrapper" data-source-line="23" data-uid="lnk17" id="link_Cleaner_ChronosWrapper"><path d="M387.95,213.7369 C421.47,213.7369 460.46,213.7369 460.46,213.7369 C460.46,213.7369 460.46,191.4669 460.46,170.0369" fill="none" id="Cleaner-to-ChronosWrapper" style="stroke:#454645;stroke-width:1;"/><polygon fill="#454645" points="460.46,164.0369,456.46,173.0369,460.46,169.0369,464.46,173.0369,460.46,164.0369" style="stroke:#454645;stroke-width:1;"/></g><!--link ChronosWrapper to Tokenizer--><g class="link" data-entity-1="ChronosWrapper" data-entity-2="Tokenizer" data-source-line="25" data-uid="lnk18" id="link_ChronosWrapper_Tokenizer"><path d="M606.12,122.2969 C639.38,122.2969 670.46,122.2969 670.46,122.2969 C670.46,122.2969 670.46,111.8969 670.46,97.0269" fill="none" id="ChronosWrapper-to-Tokenizer" style="stroke:#454645;stroke-width:1;"/><polygon fill="#454645" points="670.46,91.0269,666.46,100.0269,670.46,96.0269,674.46,100.0269,670.46,91.0269" style="stroke:#454645;stroke-width:1;"/></g><!--link ChronosWrapper to Metrics--><g class="link" data-entity-1="ChronosWrapper" data-entity-2="Metrics" data-source-line="26" data-uid="lnk19" id="link_ChronosWrapper_Metrics"><path d="M606.03,145.4469 C629.24,145.4469 647.81,145.4469 668.16,145.4469" fill="none" id="ChronosWrapper-to-Metrics" style="stroke:#454645;stroke-width:1;"/><polygon fill="#454645" points="674.16,145.4469,665.16,141.4469,669.16,145.4469,665.16,149.4469,674.16,145.4469" style="stroke:#454645;stroke-width:1;"/></g><!--link Baselines to Metrics--><g class="link" data-entity-1="Baselines" data-entity-2="Metrics" data-source-line="27" data-uid="lnk20" id="link_Baselines_Metrics"><path d="M527.46,197.8069 C527.46,183.7369 527.46,168.5969 527.46,168.5969 C527.46,168.5969 611.34,168.5969 668.22,168.5969" fill="none" id="Baselines-to-Metrics" style="stroke:#454645;stroke-width:1;"/><polygon fill="#454645" points="674.22,168.5969,665.22,164.5969,669.22,168.5969,665.22,172.5969,674.22,168.5969" style="stroke:#454645;stroke-width:1;"/></g><!--link Fetcher to Logger--><g class="link" data-entity-1="Fetcher" data-entity-2="Logger" data-source-line="29" data-uid="lnk21" id="link_Fetcher_Logger"><path d="M233.94,297.7769 C360.95,297.7769 704,297.7769 827.88,297.7769" fill="none" id="Fetcher-to-Logger" style="stroke:#454645;stroke-width:1;"/><polygon fill="#454645" points="833.88,297.7769,824.88,293.7769,828.88,297.7769,824.88,301.7769,833.88,297.7769" style="stroke:#454645;stroke-width:1;"/></g><!--link Cleaner to Logger--><g class="link" data-entity-1="Cleaner" data-entity-2="Logger" data-source-line="30" data-uid="lnk22" id="link_Cleaner_Logger"><path d="M356.46,245.0269 C356.46,264.8369 356.46,289.9469 356.46,289.9469 C356.46,289.9469 701.55,289.9469 827.73,289.9469" fill="none" id="Cleaner-to-Logger" style="stroke:#454645;stroke-width:1;"/><polygon fill="#454645" points="833.73,289.9469,824.73,285.9469,828.73,289.9469,824.73,293.9469,833.73,289.9469" style="stroke:#454645;stroke-width:1;"/></g><!--link Baselines to Logger--><g class="link" data-entity-1="Baselines" data-entity-2="Logger" data-source-line="31" data-uid="lnk23" id="link_Baselines_Logger"><path d="M580.45,221.4469 C679.01,221.4469 878.46,221.4469 878.46,221.4469 C878.46,221.4469 878.46,245.5069 878.46,267.8169" fill="none" id="Baselines-to-Logger" style="stroke:#454645;stroke-width:1;"/><polygon fill="#454645" points="878.46,273.8169,882.46,264.8169,878.46,268.8169,874.46,264.8169,878.46,273.8169" style="stroke:#454645;stroke-width:1;"/></g><!--link Metrics to Logger--><g class="link" data-entity-1="Metrics" data-entity-2="Logger" data-source-line="32" data-uid="lnk24" id="link_Metrics_Logger"><path d="M720.46,173.9869 C720.46,211.8669 720.46,282.1269 720.46,282.1269 C720.46,282.1269 781.19,282.1269 827.85,282.1269" fill="none" id="Metrics-to-Logger" style="stroke:#454645;stroke-width:1;"/><polygon fill="#454645" points="833.85,282.1269,824.85,278.1269,828.85,282.1269,824.85,286.1269,833.85,282.1269" style="stroke:#454645;stroke-width:1;"/></g><!--SRC=[POzDJiGm38NtFeKvGA-014Yp0ea54eje5fdYDjQqIUKO9ERqzCTjqw6RllVPUV9xq40zuGzVn4U5VEKuUF4zTXn9VmV291eITDGeQaBXDYX-iL2jd28eQqVu97LW7T6t45PuIkFOP-NOudldjKdI0xWtp_6CFkCam9r8wq0o4zFWNZhoqQ1fS1_fIf5lXZStRWT9CULFySEmFZeWSCy-qzGbpzFDZTUG2jSBDZq6fjXmkmJD4jnhQblBNYJ0T3zMrUEwitbRsFnQ2qmiZwoM_MUsTohfVcr9xnh2qT_7_H-kPRTqdBzoTBZNIfKd6DeJol9B1XRi3m00]--></g></svg>