<svg xmlns="http://www.w3.org/2000/svg" xmlns:xlink="http://www.w3.org/1999/xlink" contentStyleType="text/css" data-diagram-type="ACTIVITY" height="892px" preserveAspectRatio="none" style="width:729px;height:892px;background:#FFFFFF;" version="1.1" viewBox="0 0 729 892" width="729px" zoomAndPan="magnify"><title>Data Flow - Experiment Execution</title><defs/><g><g class="title" data-source-line="3"><text fill="#000000" font-family="sans-serif" font-size="14" font-weight="bold" lengthAdjust="spacing" textLength="267.415" x="229.7393" y="32.9951">Data Flow - Experiment Execution</text></g><ellipse cx="295.9531" cy="57.2969" fill="#222222" rx="10" ry="10" style="stroke:#222222;stroke-width:1;"/><rect fill="#F1F1F1" height="33.9688" rx="3.5" ry="3.5" style="stroke:#181818;stroke-width:0.5;" width="263.5156" x="164.1953" y="87.2969"/><text fill="#000000" font-family="sans-serif" font-size="12" lengthAdjust="spacing" textLength="243.5156" x="174.1953" y="108.4355">Load configuration and start experiment</text><rect fill="none" height="190.2031" rx="3.5" ry="3.5" style="stroke:#000000;stroke-width:1.5;" width="539.6758" x="179.2178" y="131.2656"/><path d="M308.5254,131.2656 L308.5254,140.5625 L298.5254,150.5625 L179.2178,150.5625" fill="none" style="stroke:#000000;stroke-width:1.5;"/><text fill="#000000" font-family="sans-serif" font-size="14" lengthAdjust="spacing" textLength="119.3076" x="182.2178" y="145.2607">Data Preparation</text><path d="M422.6885,171.9805 L422.6885,180.5469 L402.6885,184.5469 L422.6885,188.5469 L422.6885,197.1133 A0,0 0 0 0 422.6885,197.1133 L708.8936,197.1133 A0,0 0 0 0 708.8936,197.1133 L708.8936,181.9805 L698.8936,171.9805 L422.6885,171.9805 A0,0 0 0 0 422.6885,171.9805" fill="#7FFFD4" style="stroke:#454645;stroke-width:1.5;"/><path d="M698.8936,171.9805 L698.8936,181.9805 L708.8936,181.9805 L698.8936,171.9805" fill="#7FFFD4" style="stroke:#454645;stroke-width:1.5;"/><text fill="#454645" font-family="sans-serif" font-size="13" lengthAdjust="spacing" textLength="265.2051" x="428.6885" y="189.0474">Uses market data + economic indicators</text><rect fill="#F1F1F1" height="33.9688" rx="3.5" ry="3.5" style="stroke:#181818;stroke-width:0.5;" width="213.4707" x="189.2178" y="167.5625"/><text fill="#000000" font-family="sans-serif" font-size="12" lengthAdjust="spacing" textLength="193.4707" x="199.2178" y="188.7012">Fetch financial &amp; economic data</text><rect fill="#F1F1F1" height="33.9688" rx="3.5" ry="3.5" style="stroke:#181818;stroke-width:0.5;" width="191.2637" x="200.3213" y="221.5313"/><text fill="#000000" font-family="sans-serif" font-size="12" lengthAdjust="spacing" textLength="171.2637" x="210.3213" y="242.6699">Clean and combine datasets</text><rect fill="#F1F1F1" height="33.9688" rx="3.5" ry="3.5" style="stroke:#181818;stroke-width:0.5;" width="213.084" x="189.4111" y="275.5"/><text fill="#000000" font-family="sans-serif" font-size="12" lengthAdjust="spacing" textLength="193.084" x="199.4111" y="296.6387">Generate features for modelling</text><rect fill="none" height="254.2031" rx="3.5" ry="3.5" style="stroke:#000000;stroke-width:1.5;" width="609.4648" x="11" y="331.4688"/><path d="M214.7031,331.4688 L214.7031,340.7656 L204.7031,350.7656 L11,350.7656" fill="none" style="stroke:#000000;stroke-width:1.5;"/><text fill="#000000" font-family="sans-serif" font-size="14" lengthAdjust="spacing" textLength="193.7031" x="14" y="345.4639">Model Training &amp; Prediction</text><polygon fill="#F1F1F1" points="239.468,367.7656,352.4382,367.7656,364.4382,379.7656,352.4382,391.7656,239.468,391.7656,227.468,379.7656,239.468,367.7656" style="stroke:#181818;stroke-width:0.5;"/><text fill="#000000" font-family="sans-serif" font-size="11" lengthAdjust="spacing" textLength="112.9702" x="239.468" y="383.5737">Use Chronos model?</text><text fill="#000000" font-family="sans-serif" font-size="11" lengthAdjust="spacing" textLength="19.0083" x="208.4597" y="377.1714">yes</text><text fill="#000000" font-family="sans-serif" font-size="11" lengthAdjust="spacing" textLength="13.7017" x="364.4382" y="377.1714">no</text><rect fill="#F1F1F1" height="33.9688" rx="3.5" ry="3.5" style="stroke:#181818;stroke-width:0.5;" width="160.0684" x="66.5527" y="401.7656"/><text fill="#000000" font-family="sans-serif" font-size="12" lengthAdjust="spacing" textLength="140.0684" x="76.5527" y="422.9043">Tokenize / encode data</text><rect fill="#F1F1F1" height="33.9688" rx="3.5" ry="3.5" style="stroke:#181818;stroke-width:0.5;" width="145.0098" x="74.082" y="455.7344"/><text fill="#000000" font-family="sans-serif" font-size="12" lengthAdjust="spacing" textLength="125.0098" x="84.082" y="476.873">Train Chronos model</text><rect fill="#F1F1F1" height="33.9688" rx="3.5" ry="3.5" style="stroke:#181818;stroke-width:0.5;" width="247.1738" x="23" y="509.7031"/><text fill="#000000" font-family="sans-serif" font-size="12" lengthAdjust="spacing" textLength="227.1738" x="33" y="530.8418">Use Chronos for zero-shot forecasting</text><rect fill="#F1F1F1" height="33.9688" rx="3.5" ry="3.5" style="stroke:#181818;stroke-width:0.5;" width="310.291" x="290.1738" y="401.7656"/><text fill="#000000" font-family="sans-serif" font-size="12" lengthAdjust="spacing" textLength="290.291" x="300.1738" y="422.9043">Train baseline models (ARIMA / VAR / LSTM etc.)</text><rect fill="#F1F1F1" height="33.9688" rx="3.5" ry="3.5" style="stroke:#181818;stroke-width:0.5;" width="260.3105" x="315.1641" y="455.7344"/><text fill="#000000" font-family="sans-serif" font-size="12" lengthAdjust="spacing" textLength="240.3105" x="325.1641" y="476.873">Make predictions using baseline models</text><polygon fill="#F1F1F1" points="295.9531,549.6719,307.9531,561.6719,295.9531,573.6719,283.9531,561.6719,295.9531,549.6719" style="stroke:#181818;stroke-width:0.5;"/><rect fill="none" height="244.1719" rx="3.5" ry="3.5" style="stroke:#000000;stroke-width:1.5;" width="254.4355" x="168.7354" y="595.6719"/><path d="M341.1094,595.6719 L341.1094,604.9688 L331.1094,614.9688 L168.7354,614.9688" fill="none" style="stroke:#000000;stroke-width:1.5;"/><text fill="#000000" font-family="sans-serif" font-size="14" lengthAdjust="spacing" textLength="162.374" x="171.7354" y="609.667">Evaluation &amp; Reporting</text><rect fill="#F1F1F1" height="33.9688" rx="3.5" ry="3.5" style="stroke:#181818;stroke-width:0.5;" width="182.9785" x="204.4639" y="631.9688"/><text fill="#000000" font-family="sans-serif" font-size="12" lengthAdjust="spacing" textLength="162.9785" x="214.4639" y="653.1074">Evaluate forecast accuracy</text><rect fill="#F1F1F1" height="33.9688" rx="3.5" ry="3.5" style="stroke:#181818;stroke-width:0.5;" width="203.6563" x="194.125" y="685.9375"/><text fill="#000000" font-family="sans-serif" font-size="12" lengthAdjust="spacing" textLength="183.6563" x="204.125" y="707.0762">Compute metrics &amp; attribution</text><rect fill="#F1F1F1" height="33.9688" rx="3.5" ry="3.5" style="stroke:#181818;stroke-width:0.5;" width="234.4355" x="178.7354" y="739.9063"/><text fill="#000000" font-family="sans-serif" font-size="12" lengthAdjust="spacing" textLength="214.4355" x="188.7354" y="761.0449">Generate reports and visualizations</text><rect fill="#F1F1F1" height="33.9688" rx="3.5" ry="3.5" style="stroke:#181818;stroke-width:0.5;" width="210.752" x="190.5771" y="793.875"/><text fill="#000000" font-family="sans-serif" font-size="12" lengthAdjust="spacing" textLength="190.752" x="200.5771" y="815.0137">Save results to output directory</text><ellipse cx="295.9531" cy="870.8438" fill="none" rx="11" ry="11" style="stroke:#222222;stroke-width:1;"/><ellipse cx="295.9531" cy="870.8438" fill="#222222" rx="6" ry="6" style="stroke:#222222;stroke-width:1;"/><line style="stroke:#454645;stroke-width:1;" x1="295.9531" x2="295.9531" y1="67.2969" y2="87.2969"/><polygon fill="#454645" points="291.9531,77.2969,295.9531,87.2969,299.9531,77.2969,295.9531,81.2969" style="stroke:#454645;stroke-width:1;"/><line style="stroke:#454645;stroke-width:1;" x1="295.9531" x2="295.9531" y1="201.5313" y2="221.5313"/><polygon fill="#454645" points="291.9531,211.5313,295.9531,221.5313,299.9531,211.5313,295.9531,215.5313" style="stroke:#454645;stroke-width:1;"/><line style="stroke:#454645;stroke-width:1;" x1="295.9531" x2="295.9531" y1="255.5" y2="275.5"/><polygon fill="#454645" points="291.9531,265.5,295.9531,275.5,299.9531,265.5,295.9531,269.5" style="stroke:#454645;stroke-width:1;"/><line style="stroke:#454645;stroke-width:1;" x1="295.9531" x2="295.9531" y1="121.2656" y2="167.5625"/><polygon fill="#454645" points="291.9531,157.5625,295.9531,167.5625,299.9531,157.5625,295.9531,161.5625" style="stroke:#454645;stroke-width:1;"/><line style="stroke:#454645;stroke-width:1;" x1="146.5869" x2="146.5869" y1="435.7344" y2="455.7344"/><polygon fill="#454645" points="142.5869,445.7344,146.5869,455.7344,150.5869,445.7344,146.5869,449.7344" style="stroke:#454645;stroke-width:1;"/><line style="stroke:#454645;stroke-width:1;" x1="146.5869" x2="146.5869" y1="489.7031" y2="509.7031"/><polygon fill="#454645" points="142.5869,499.7031,146.5869,509.7031,150.5869,499.7031,146.5869,503.7031" style="stroke:#454645;stroke-width:1;"/><line style="stroke:#454645;stroke-width:1;" x1="445.3193" x2="445.3193" y1="435.7344" y2="455.7344"/><polygon fill="#454645" points="441.3193,445.7344,445.3193,455.7344,449.3193,445.7344,445.3193,449.7344" style="stroke:#454645;stroke-width:1;"/><line style="stroke:#454645;stroke-width:1;" x1="227.468" x2="146.5869" y1="379.7656" y2="379.7656"/><line style="stroke:#454645;stroke-width:1;" x1="146.5869" x2="146.5869" y1="379.7656" y2="401.7656"/><polygon fill="#454645" points="142.5869,391.7656,146.5869,401.7656,150.5869,391.7656,146.5869,395.7656" style="stroke:#454645;stroke-width:1;"/><line style="stroke:#454645;stroke-width:1;" x1="364.4382" x2="445.3193" y1="379.7656" y2="379.7656"/><line style="stroke:#454645;stroke-width:1;" x1="445.3193" x2="445.3193" y1="379.7656" y2="401.7656"/><polygon fill="#454645" points="441.3193,391.7656,445.3193,401.7656,449.3193,391.7656,445.3193,395.7656" style="stroke:#454645;stroke-width:1;"/><line style="stroke:#454645;stroke-width:1;" x1="146.5869" x2="146.5869" y1="543.6719" y2="561.6719"/><line style="stroke:#454645;stroke-width:1;" x1="146.5869" x2="283.9531" y1="561.6719" y2="561.6719"/><polygon fill="#454645" points="273.9531,557.6719,283.9531,561.6719,273.9531,565.6719,277.9531,561.6719" style="stroke:#454645;stroke-width:1;"/><line style="stroke:#454645;stroke-width:1;" x1="445.3193" x2="445.3193" y1="489.7031" y2="561.6719"/><line style="stroke:#454645;stroke-width:1;" x1="445.3193" x2="307.9531" y1="561.6719" y2="561.6719"/><polygon fill="#454645" points="317.9531,557.6719,307.9531,561.6719,317.9531,565.6719,313.9531,561.6719" style="stroke:#454645;stroke-width:1;"/><line style="stroke:#454645;stroke-width:1;" x1="295.9531" x2="295.9531" y1="309.4688" y2="367.7656"/><polygon fill="#454645" points="291.9531,357.7656,295.9531,367.7656,299.9531,357.7656,295.9531,361.7656" style="stroke:#454645;stroke-width:1;"/><line style="stroke:#454645;stroke-width:1;" x1="295.9531" x2="295.9531" y1="665.9375" y2="685.9375"/><polygon fill="#454645" points="291.9531,675.9375,295.9531,685.9375,299.9531,675.9375,295.9531,679.9375" style="stroke:#454645;stroke-width:1;"/><line style="stroke:#454645;stroke-width:1;" x1="295.9531" x2="295.9531" y1="719.9063" y2="739.9063"/><polygon fill="#454645" points="291.9531,729.9063,295.9531,739.9063,299.9531,729.9063,295.9531,733.9063" style="stroke:#454645;stroke-width:1;"/><line style="stroke:#454645;stroke-width:1;" x1="295.9531" x2="295.9531" y1="773.875" y2="793.875"/><polygon fill="#454645" points="291.9531,783.875,295.9531,793.875,299.9531,783.875,295.9531,787.875" style="stroke:#454645;stroke-width:1;"/><line style="stroke:#454645;stroke-width:1;" x1="295.9531" x2="295.9531" y1="573.6719" y2="631.9688"/><polygon fill="#454645" points="291.9531,621.9688,295.9531,631.9688,299.9531,621.9688,295.9531,625.9688" style="stroke:#454645;stroke-width:1;"/><line style="stroke:#454645;stroke-width:1;" x1="295.9531" x2="295.9531" y1="827.8438" y2="859.8438"/><polygon fill="#454645" points="291.9531,849.8438,295.9531,859.8438,299.9531,849.8438,295.9531,853.8438" style="stroke:#454645;stroke-width:1;"/><!--SRC=[NL9DRzim3BtxLx0z50cARlVaK0HfEmneW27DTcTaEYOYYuP4Pqk6_VTHSf0slHYI-VW-HDveInt1WRSHWrPfpw77Y1ru3gJ7da2Yjb8fgoTuGaLuyV8R7k3vJq-HEmfgHtA3ieIgIefHgshsAbY3az3mReYOQu2XXb86khJEgyhaZ3m3RWlzZqZPGVvp2tyhWDaBgMkXuO31CNgu0p9cwTX1RHrpmmHHWiYxLkq2y3DHWWxZdhH0uFwzXKFD3bLYCYYPfzoRPPQUS7JffDjQ_DAQI5DMc7sZG6QBe27K8Pf08n4wgSdRM-tcrR-hBAjSW4r43bOrpvRBXDzZSGCJymdBDfgpD38zJi464c1of3GjKMORsLFW4y5NS-iCT0cTYvd_ck9S-KYTZPueoaDgHVED72Ojfkq9l24dGQOV6RUMEs_0I9bWibX_NotCmg_5shwlRviLs5I-JCzgAzmJz9U42OQKKt-YcOylpisdjte-e1_69Rc3DVMsSjPzdlwvI1VVWCxPJhbZ6SjIkdwmQaSQsIKZGBNJjkpZzU1YOKvbn0TE0te-5TLnm6zuo9WqUCEeW0ngp52poTgw7Ck4aqh_7m00]--></g></svg>