<svg xmlns="http://www.w3.org/2000/svg" xmlns:xlink="http://www.w3.org/1999/xlink" contentStyleType="text/css" data-diagram-type="DESCRIPTION" height="1048px" preserveAspectRatio="none" style="width:825px;height:1048px;background:#FFFFFF;" version="1.1" viewBox="0 0 825 1048" width="825px" zoomAndPan="magnify"><title>Multivariate Financial Forecasting (Simplified)</title><defs/><g><g class="title" data-source-line="12"><text fill="#000000" font-family="sans-serif" font-size="14" font-weight="bold" lengthAdjust="spacing" textLength="367.2402" x="222.084" y="22.9951">Multivariate Financial Forecasting (Simplified)</text></g><!--cluster DL--><g class="cluster" data-entity="DL" data-source-line="18" data-uid="ent0005" id="cluster_DL"><path d="M152.52,507.9369 L238.4956,507.9369 A4.5,4.5 0 0 1 241.4956,510.9369 L248.4956,530.2338 L315.63,530.2338 A3,3 0 0 1 318.63,533.2338 L318.63,865.9369 A3,3 0 0 1 315.63,868.9369 L152.52,868.9369 A3,3 0 0 1 149.52,865.9369 L149.52,510.9369 A3,3 0 0 1 152.52,507.9369" fill="none" style="stroke:#000000;stroke-width:1.5;"/><line style="stroke:#000000;stroke-width:1.5;" x1="149.52" x2="248.4956" y1="530.2338" y2="530.2338"/><text fill="#000000" font-family="sans-serif" font-size="14" font-weight="bold" lengthAdjust="spacing" textLength="85.9756" x="153.52" y="522.932">Data Layer</text></g><!--cluster FE--><g class="cluster" data-entity="FE" data-source-line="24" data-uid="ent0009" id="cluster_FE"><path d="M400.19,620.9369 L552.0162,620.9369 A4.5,4.5 0 0 1 555.0162,623.9369 L562.0162,643.2338 L786.04,643.2338 A3,3 0 0 1 789.04,646.2338 L789.04,988.9369 A3,3 0 0 1 786.04,991.9369 L400.19,991.9369 A3,3 0 0 1 397.19,988.9369 L397.19,623.9369 A3,3 0 0 1 400.19,620.9369" fill="none" style="stroke:#000000;stroke-width:1.5;"/><line style="stroke:#000000;stroke-width:1.5;" x1="397.19" x2="562.0162" y1="643.2338" y2="643.2338"/><text fill="#000000" font-family="sans-serif" font-size="14" font-weight="bold" lengthAdjust="spacing" textLength="151.8262" x="401.19" y="635.932">Forecasting Engine</text></g><!--cluster models--><g class="cluster" data-entity="models" data-source-line="25" data-uid="ent0010" id="cluster_models"><rect fill="none" height="264" rx="3" ry="3" style="stroke:#181818;stroke-width:1;" width="134.65" x="614.39" y="687.9369"/><text fill="#000000" font-family="sans-serif" font-size="14" font-weight="bold" lengthAdjust="spacing" textLength="56.1982" x="653.6159" y="702.932">Models</text></g><!--cluster APP--><g class="cluster" data-entity="APP" data-source-line="32" data-uid="ent0014" id="cluster_APP"><path d="M620.62,348.9369 L718.2509,348.9369 A4.5,4.5 0 0 1 721.2509,351.9369 L728.2509,371.2338 L742.82,371.2338 A3,3 0 0 1 745.82,374.2338 L745.82,432.9369 A3,3 0 0 1 742.82,435.9369 L620.62,435.9369 A3,3 0 0 1 617.62,432.9369 L617.62,351.9369 A3,3 0 0 1 620.62,348.9369" fill="none" style="stroke:#000000;stroke-width:1.5;"/><line style="stroke:#000000;stroke-width:1.5;" x1="617.62" x2="728.2509" y1="371.2338" y2="371.2338"/><text fill="#000000" font-family="sans-serif" font-size="14" font-weight="bold" lengthAdjust="spacing" textLength="97.6309" x="621.62" y="363.932">Applications</text></g><!--entity yfinance--><g class="entity" data-entity="yfinance" data-source-line="19" data-uid="ent0006" id="entity_yfinance"><path d="M177.0859,551.1689 C180.6189,545.1222 184.5377,546.6863 188.0938,551.1448 C191.9911,545.1838 196.9508,544.2637 200.911,551.0817 C204.8249,545.3394 209.499,545.096 212.8331,551.6441 C215.7916,547.0829 219.1691,546.6473 222.9416,550.6876 C226.7644,544.6697 231.1671,544.3146 235.2111,550.4646 C239.2152,543.855 243.639,544.8655 247.5021,550.6051 C251.373,545.1522 254.8434,545.5914 258.2088,551.0989 C261.6284,544.4672 266.7113,545.2585 270.5643,550.6537 C273.7826,545.4216 279.2366,545.5622 282.5811,550.5046 C286.169,546.6735 290.9311,547.3613 292.6902,552.5535 C298.0695,555.3582 299.671,558.4763 295.2499,563.5602 C301.533,565.0819 303.0602,568.3257 299.6577,573.9547 C304.7635,580.181 302.7706,584.0946 296.2177,587.3204 C301.3791,591.2532 299.6408,595.9738 294.1215,597.7624 C290.6805,603.8161 286.468,603.3323 282.5033,598.3118 C279.5655,605.8585 274.2592,606.5146 269.2574,600.2982 C266.9641,604.5208 262.0714,605.1439 259.3344,600.813 C255.2056,606.4984 250.288,607.0124 246.607,600.3514 C244.4731,606.2684 239.1967,606.5356 236.0349,601.3283 C232.2013,607.2815 226.7189,608.1217 223.1024,601.1117 C218.6779,606.6539 214.6385,605.7809 211.2455,600.0288 C208.2564,605.0849 203.1648,606.2331 199.8592,600.3586 C195.5492,605.8862 191.9332,604.7256 188.3176,599.6059 C183.3465,605.5881 179.3216,604.4221 176.3198,597.7401 C171.1616,594.8029 171.5133,589.436 176.3186,586.4977 C169.9012,583.1939 169.9856,578.2411 175.3056,573.9869 C170.2323,571.0474 169.4358,565.9117 174.7536,562.4739 C170.1078,557.6026 171.705,553.9716 177.0859,551.1689" fill="#F1F1F1" style="stroke:#181818;stroke-width:0.5;"/><text fill="#000000" font-family="sans-serif" font-size="14" lengthAdjust="spacing" textLength="102.1631" x="182.81" y="570.642">Yahoo Finance</text><text fill="#000000" font-family="sans-serif" font-size="14" lengthAdjust="spacing" textLength="102.5391" x="182.81" y="586.9389">(S&amp;P 500, VIX)</text></g><!--entity fred--><g class="entity" data-entity="fred" data-source-line="20" data-uid="ent0007" id="entity_fred"><path d="M174.4609,798.8422 C177.4132,792.6103 183.0902,793.7676 186.0662,798.8179 C189.5237,793.5194 194.7064,793.209 198.1376,798.847 C201.1476,791.5589 207.7135,791.2963 211.4203,798.1946 C215.0011,792.2426 218.4666,791.9092 222.435,797.8352 C226.509,792.0611 231.3889,791.8637 235.4125,797.8906 C239.2262,793.4844 243.2058,792.3482 246.6718,798.2698 C250.2024,791.9619 255.9747,793.2187 259.1866,798.6107 C262.4762,792.6075 267.5791,792.3905 271.1805,798.2967 C276.2889,792.8781 280.1414,793.2906 284.0049,799.6519 C287.3812,794.431 292.9646,795.0849 295.62,800.4433 C300.5196,802.8158 301.0911,806.7965 297.1226,810.4946 C302.7384,813.4867 303.0393,818.8128 297.838,822.4521 C304.1196,826.8407 303.7153,830.7838 297.1716,834.4608 C302.3554,839.804 301.5642,843.6608 294.8906,846.8146 C292.6129,851.8027 287.7925,851.8458 284.5253,847.972 C280.2123,853.9988 276.4702,853.1613 272.121,848.0122 C268.3001,853.8325 263.3048,854.7625 259.1127,848.4088 C256.7417,854.0093 251.006,856.6388 246.6017,850.5931 C243.818,856.6376 240.0871,857.5526 235.673,852.1496 C231.132,857.8947 226.0084,857.6754 223.2944,850.4111 C219.3391,857.4314 214.3019,856.0023 210.335,850.4231 C206.3724,855.9879 200.915,855.5833 198.0458,849.29 C193.945,853.0168 190.1755,852.857 187.5195,847.5976 C183.189,853.1257 176.8083,853.1261 173.9009,846.0589 C166.7445,843.6571 166.7092,838.8292 171.2722,833.8948 C165.6127,831.8609 164.2514,828.3204 167.7723,823.2641 C163.6627,818.9982 164.6283,813.158 170.968,811.8067 C165.3564,805.5533 167.3547,801.6692 174.4609,798.8422" fill="#F1F1F1" style="stroke:#181818;stroke-width:0.5;"/><text fill="#000000" font-family="sans-serif" font-size="14" lengthAdjust="spacing" textLength="37.4063" x="180.52" y="818.642">FRED</text><text fill="#000000" font-family="sans-serif" font-size="14" lengthAdjust="spacing" textLength="107.1123" x="180.52" y="834.9389">(GDP, Inflation)</text></g><!--entity db--><g class="entity" data-entity="db" data-source-line="21" data-uid="ent0008" id="entity_db"><path d="M173.98,685.2969 C173.98,675.2969 234.0806,675.2969 234.0806,675.2969 C234.0806,675.2969 294.1812,675.2969 294.1812,685.2969 L294.1812,710.5938 C294.1812,720.5938 234.0806,720.5938 234.0806,720.5938 C234.0806,720.5938 173.98,720.5938 173.98,710.5938 L173.98,685.2969" fill="#F1F1F1" style="stroke:#181818;stroke-width:0.5;"/><path d="M173.98,685.2969 C173.98,695.2969 234.0806,695.2969 234.0806,695.2969 C234.0806,695.2969 294.1812,695.2969 294.1812,685.2969" fill="none" style="stroke:#181818;stroke-width:0.5;"/><text fill="#000000" font-family="sans-serif" font-size="14" lengthAdjust="spacing" textLength="100.2012" x="183.98" y="712.292">Financial Data</text></g><!--entity evaluation--><g class="entity" data-entity="evaluation" data-source-line="29" data-uid="ent0013" id="entity_evaluation"><rect fill="#F1F1F1" height="36.2969" rx="3" ry="3" style="stroke:#181818;stroke-width:0.5;" width="93.8691" x="421.19" y="718.7969"/><text fill="#000000" font-family="sans-serif" font-size="14" lengthAdjust="spacing" textLength="73.8691" x="431.19" y="741.792">Evaluation</text></g><!--entity chronos--><g class="entity" data-entity="chronos" data-source-line="26" data-uid="ent0011" id="entity_chronos"><rect fill="#F1F1F1" height="36.2969" rx="3" ry="3" style="stroke:#181818;stroke-width:0.5;" width="77.7021" x="642.87" y="891.7969"/><text fill="#000000" font-family="sans-serif" font-size="14" lengthAdjust="spacing" textLength="57.7021" x="652.87" y="914.792">Chronos</text></g><!--entity baselines--><g class="entity" data-entity="baselines" data-source-line="27" data-uid="ent0012" id="entity_baselines"><rect fill="#F1F1F1" height="36.2969" rx="3" ry="3" style="stroke:#181818;stroke-width:0.5;" width="86.6504" x="638.39" y="785.7969"/><text fill="#000000" font-family="sans-serif" font-size="14" lengthAdjust="spacing" textLength="66.6504" x="648.39" y="808.792">Baselines</text></g><!--entity dashboard--><g class="entity" data-entity="dashboard" data-source-line="33" data-uid="ent0015" id="entity_dashboard"><rect fill="#F1F1F1" height="36.2969" rx="3" ry="3" style="stroke:#181818;stroke-width:0.5;" width="96.2002" x="633.62" y="383.7969"/><text fill="#000000" font-family="sans-serif" font-size="14" lengthAdjust="spacing" textLength="76.2002" x="643.62" y="406.792">Dashboard</text></g><!--entity researcher--><g class="entity" data-entity="researcher" data-source-line="14" data-uid="ent0002" id="entity_researcher"><ellipse cx="45.7612" cy="372.2969" fill="#F1F1F1" rx="8" ry="8" style="stroke:#181818;stroke-width:0.5;"/><path d="M45.7612,380.2969 L45.7612,407.2969 M32.7612,388.2969 L58.7612,388.2969 M45.7612,407.2969 L32.7612,422.2969 M45.7612,407.2969 L58.7612,422.2969" fill="none" style="stroke:#181818;stroke-width:0.5;"/><text fill="#000000" font-family="sans-serif" font-size="14" lengthAdjust="spacing" textLength="79.5225" x="6" y="436.792">Researcher</text></g><!--entity investor--><g class="entity" data-entity="investor" data-source-line="15" data-uid="ent0003" id="entity_investor"><ellipse cx="234.0824" cy="193.2969" fill="#F1F1F1" rx="8" ry="8" style="stroke:#181818;stroke-width:0.5;"/><path d="M234.0824,201.2969 L234.0824,228.2969 M221.0824,209.2969 L247.0824,209.2969 M234.0824,228.2969 L221.0824,243.2969 M234.0824,228.2969 L247.0824,243.2969" fill="none" style="stroke:#181818;stroke-width:0.5;"/><text fill="#000000" font-family="sans-serif" font-size="14" lengthAdjust="spacing" textLength="57.0049" x="205.58" y="257.792">Investor</text></g><!--entity economist--><g class="entity" data-entity="economist" data-source-line="16" data-uid="ent0004" id="entity_economist"><ellipse cx="468.1287" cy="51.2969" fill="#F1F1F1" rx="8" ry="8" style="stroke:#181818;stroke-width:0.5;"/><path d="M468.1287,59.2969 L468.1287,86.2969 M455.1287,67.2969 L481.1287,67.2969 M468.1287,86.2969 L455.1287,101.2969 M468.1287,86.2969 L481.1287,101.2969" fill="none" style="stroke:#181818;stroke-width:0.5;"/><text fill="#000000" font-family="sans-serif" font-size="14" lengthAdjust="spacing" textLength="72.8574" x="431.7" y="115.792">Economist</text></g><g class="entity" data-entity="GMN28" data-source-line="59" data-uid="ent0029" id="entity_GMN28"><path d="M382.63,555.3769 L382.63,560.9369 L300.83,564.9369 L382.63,568.9369 L382.63,574.5097 A3,3 0 0 0 385.63,577.5097 L550.6124,577.5097 A3,3 0 0 0 553.6124,574.5097 L553.6124,562.3769 L543.6124,552.3769 L385.63,552.3769 A3,3 0 0 0 382.63,555.3769" fill="#FEFFDD" style="stroke:#181818;stroke-width:0.5;"/><path d="M543.6124,552.3769 L543.6124,560.8769 A1.5,1.5 0 0 0 545.1124,562.3769 L553.6124,562.3769 L543.6124,552.3769" fill="#FEFFDD" style="stroke:#181818;stroke-width:0.5;"/><text fill="#000000" font-family="sans-serif" font-size="13" lengthAdjust="spacing" textLength="149.9824" x="388.63" y="569.4438">Example: S&amp;P 500, VIX</text></g><g class="entity" data-entity="GMN31" data-source-line="60" data-uid="ent0032" id="entity_GMN31"><path d="M396.7,1019.3769 L396.7,1038.5097 A3,3 0 0 0 399.7,1041.5097 L536.5496,1041.5097 A3,3 0 0 0 539.5496,1038.5097 L539.5496,1026.3769 L529.5496,1016.3769 L399.7,1016.3769 A3,3 0 0 0 396.7,1019.3769" fill="#FEFFDD" style="stroke:#181818;stroke-width:0.5;"/><path d="M529.5496,1016.3769 L529.5496,1024.8769 A1.5,1.5 0 0 0 531.0496,1026.3769 L539.5496,1026.3769 L529.5496,1016.3769" fill="#FEFFDD" style="stroke:#181818;stroke-width:1;"/><text fill="#000000" font-family="sans-serif" font-size="13" lengthAdjust="spacing" textLength="121.8496" x="402.7" y="1033.4438">Example: GDP, CPI</text></g><!--link researcher to investor--><!--link investor to economist--><!--link researcher to dashboard--><!--link researcher to dashboard--><g class="link" data-entity-1="researcher" data-entity-2="dashboard" data-source-line="54" data-uid="lnk25" id="link_researcher_dashboard"><path d="M85.54,405.5669 C197.03,405.5669 506.26,405.5669 627.44,405.5669" fill="none" id="researcher-to-dashboard-1" style="stroke:#181818;stroke-width:1;"/><polygon fill="#181818" points="633.44,405.5669,624.44,401.5669,628.44,405.5669,624.44,409.5669,633.44,405.5669" style="stroke:#181818;stroke-width:1;"/><text fill="#000000" font-family="sans-serif" font-size="13" lengthAdjust="spacing" textLength="112.9375" x="246.49" y="418.6338">Explore / Analyze</text></g><!--link yfinance to FE--><g class="link" data-entity-1="yfinance" data-entity-2="FE" data-source-line="42" data-uid="lnk19" id="link_yfinance_FE"><path d="M300.78,591.3769 C370.25,591.3769 469.04,591.3769 469.04,591.3769 C469.04,591.3769 469.04,604.6469 469.04,618.3319 C469.04,619.1872 469.04,614.0441 469.04,614.8995" fill="none" id="yfinance-to-FE" style="stroke:#181818;stroke-width:1;"/><polygon fill="#181818" points="469.04,620.8995,473.04,611.8995,469.04,615.8995,465.04,611.8995,469.04,620.8995" style="stroke:#181818;stroke-width:1;"/><text fill="#000000" font-family="sans-serif" font-size="13" lengthAdjust="spacing" textLength="78.5649" x="334.12" y="604.4438">Market data</text></g><!--link fred to FE--><g class="link" data-entity-1="fred" data-entity-2="FE" data-source-line="43" data-uid="lnk20" id="link_fred_FE"><path d="M303.09,806.3669 C324.71,806.3669 343.04,806.3669 343.04,806.3669 C343.04,806.3669 343.04,647.9369 343.04,647.9369 C343.04,647.9369 350.1419,647.9369 360.9613,647.9369 C366.3709,647.9369 372.71,647.9369 379.5554,647.9369 C382.9781,647.9369 386.5274,647.9369 390.1503,647.9369 C391.9618,647.9369 393.7917,647.9369 395.6335,647.9369 C396.0939,647.9369 390.5551,647.9369 391.0169,647.9369" fill="none" id="fred-to-FE" style="stroke:#181818;stroke-width:1;"/><polygon fill="#181818" points="397.0169,647.9369,388.0169,643.9369,392.0169,647.9369,388.0169,651.9369,397.0169,647.9369" style="stroke:#181818;stroke-width:1;"/><text fill="#000000" font-family="sans-serif" font-size="13" lengthAdjust="spacing" textLength="131.0601" x="344.04" y="681.0538">Economic indicators</text></g><!--link db to FE--><g class="link" data-entity-1="db" data-entity-2="FE" data-source-line="44" data-uid="lnk21" id="link_db_FE"><path d="M294.59,694.6169 C311.995,694.6169 331.6006,694.6169 351.2188,694.6169 C361.0278,694.6169 370.84,694.6169 380.3818,694.6169 C385.1527,694.6169 389.856,694.6169 394.4575,694.6169 C395.0327,694.6169 395.6063,694.6169 396.1782,694.6169 C396.4642,694.6169 390.7498,694.6169 391.0349,694.6169" fill="none" id="db-to-FE" style="stroke:#181818;stroke-width:1;"/><polygon fill="#181818" points="397.0349,694.6169,388.0349,690.6169,392.0349,694.6169,388.0349,698.6169,397.0349,694.6169" style="stroke:#181818;stroke-width:1;"/><text fill="#000000" font-family="sans-serif" font-size="13" lengthAdjust="spacing" textLength="158.1646" x="406.09" y="707.6838">Historical / cleaned data</text></g><!--link models to evaluation--><g class="link" data-entity-1="models" data-entity-2="evaluation" data-source-line="47" data-uid="lnk22" id="link_models_evaluation"><path d="M613.4203,714.9369 C612.7366,714.9369 612.0509,714.9369 611.3634,714.9369 C609.9884,714.9369 608.6061,714.9369 607.2178,714.9369 C604.4412,714.9369 601.6407,714.9369 598.8263,714.9369 C593.1975,714.9369 587.5136,714.9369 581.8563,714.9369 C536.5975,714.9369 493.04,714.9369 493.04,714.9369 C493.04,714.9369 493.04,710.3169 493.04,712.3769" fill="none" id="models-to-evaluation" style="stroke:#181818;stroke-width:1;"/><polygon fill="#181818" points="493.04,718.3769,497.04,709.3769,493.04,713.3769,489.04,709.3769,493.04,718.3769" style="stroke:#181818;stroke-width:1;"/><text fill="#000000" font-family="sans-serif" font-size="13" lengthAdjust="spacing" textLength="150.1094" x="586.24" y="728.0038">Performance &amp; metrics</text></g><!--link evaluation to models--><g class="link" data-entity-1="evaluation" data-entity-2="models" data-source-line="48" data-uid="lnk23" id="link_evaluation_models"><path d="M515.34,736.9369 C531.0875,736.9369 549.38,736.9369 567.9608,736.9369 C577.2512,736.9369 586.6136,736.9369 595.7661,736.9369 C600.3423,736.9369 604.866,736.9369 609.302,736.9369 C610.4109,736.9369 611.5144,736.9369 612.6119,736.9369 C613.1606,736.9369 607.7079,736.9369 608.2535,736.9369" fill="none" id="evaluation-to-models" style="stroke:#181818;stroke-width:1;"/><polygon fill="#181818" points="614.2535,736.9369,605.2535,732.9369,609.2535,736.9369,605.2535,740.9369,614.2535,736.9369" style="stroke:#181818;stroke-width:1;"/><text fill="#000000" font-family="sans-serif" font-size="13" lengthAdjust="spacing" textLength="157.4092" x="610.42" y="750.0038">Feedback / recalibration</text></g><!--link FE to dashboard--><g class="link" data-entity-1="FE" data-entity-2="dashboard" data-source-line="51" data-uid="lnk24" id="link_FE_dashboard"><path d="M660.04,642.7305 C660.04,625.8709 660.04,580.4988 660.04,555.6356 C660.04,505.9094 660.04,455.0319 660.04,426.4269" fill="none" id="FE-to-dashboard" style="stroke:#181818;stroke-width:1;"/><polygon fill="#181818" points="660.04,420.4269,656.04,429.4269,660.04,425.4269,664.04,429.4269,660.04,420.4269" style="stroke:#181818;stroke-width:1;"/><text fill="#000000" font-family="sans-serif" font-size="13" lengthAdjust="spacing" textLength="156.3682" x="661.04" y="625.7838">Forecasts &amp; Diagnostics</text></g><!--link investor to dashboard--><g class="link" data-entity-1="investor" data-entity-2="dashboard" data-source-line="55" data-uid="lnk26" id="link_investor_dashboard"><path d="M244.04,261.4269 C244.04,313.0469 244.04,398.3069 244.04,398.3069 C244.04,398.3069 513.25,398.3069 627.21,398.3069" fill="none" id="investor-to-dashboard" style="stroke:#181818;stroke-width:1;"/><polygon fill="#181818" points="633.21,398.3069,624.21,394.3069,628.21,398.3069,624.21,402.3069,633.21,398.3069" style="stroke:#181818;stroke-width:1;"/><text fill="#000000" font-family="sans-serif" font-size="13" lengthAdjust="spacing" textLength="94.8975" x="371.18" y="411.3738">View forecasts</text></g><!--link economist to dashboard--><g class="link" data-entity-1="economist" data-entity-2="dashboard" data-source-line="56" data-uid="lnk27" id="link_economist_dashboard"><path d="M469.04,119.2769 C469.04,202.2469 469.04,391.0469 469.04,391.0469 C469.04,391.0469 564.42,391.0469 627.19,391.0469" fill="none" id="economist-to-dashboard" style="stroke:#181818;stroke-width:1;"/><polygon fill="#181818" points="633.19,391.0469,624.19,387.0469,628.19,391.0469,624.19,395.0469,633.19,391.0469" style="stroke:#181818;stroke-width:1;"/><text fill="#000000" font-family="sans-serif" font-size="13" lengthAdjust="spacing" textLength="89.8193" x="379.04" y="350.3038">Assess trends</text></g><!--link fred to GMN31--><g class="link" data-entity-1="fred" data-entity-2="GMN31" data-source-line="60" data-uid="lnk33" id="link_fred_GMN31"><path d="M302.98,837.6669 C351.94,837.6669 409.04,837.6669 409.04,837.6669 C409.04,837.6669 409.04,973.2069 409.04,1016.0969" fill="none" id="fred-GMN31" style="stroke:#181818;stroke-width:1;stroke-dasharray:7,7;"/></g><!--SRC=[TLHDQnin4BthLmm-v0DYcai_yA7WndPhYC4a45hQ7iQhMQ-8LbeasQvRyjyxqkvwvPJwO2JDq-ZDlBTp2O-gRZJTGAMsrLZJdZIWAoeLg0WxHt1LAwDgrA1C86Tu8IcWqlvQ2F-iJ8CEQoXitLX39Zo6eoPmV1dDLbC6CLQIfmRUtsQ73irpFFoG7sfbA1mR0kj2PRE0hr3QWp9RA57xFFc3tHbvPvqX1- -4q5G621OS5nL0giX7MID4K87fhNOwg3qwXO5WeGoQGd5X2yiuz24-S9Nweaf5aWl58bW7emSk83Q7t0ZGSvNzjWSipPuyhr9OTPi-E2-iiRNo8KMftmdHOF6CMuBH30F2FHwx_BDx-2C02crt4aRViBAsOqi_pDNZnHhUtjxUmDFowtN27yisEDnPFCnd3FqyMz_0qfGQOnTQSEb8Cb3oanlq_FZGXqWZOUH6l6JqylxCpPPLIgZ5FD4yQGwZ5KkjVGhMQPa0CBW4HdULu_fRJD6kNqC-CQreXHQqwNSCUn5dmFaUzIwLrdRsj3rZFsrOpoATjncdwtNRto7J37sriUXaMtw_YtakOQhLra0IquCX3Fee1Wl0-7kbf2JpS_nnaBvVd4K7wVzpVNYOdqscABKzH4UnfobrNlHYmvWli0GJMA5xff0K5L7TFf9-4-ZiLt0M6Vl0LGYvEGD5s1SL-J90mnks4Q7XJ2adSsc51JGowp8htnhBLwhnebCyviqm4rYJAwsh4-SBg2dm8rvaa7YZkpo11P7Si7HC8ffEgurh9MKMhVUWSNQlUAP0sVdInqy-L9JrZoiRvmsDcK_e2vWftBBpGcGI5MwrJPEETOQ32bMMB5VhLTBvhqPpNcOxvH5v_4sPyg-WJueE0sLnCiC_mAdtvBacHqOcUgjk4XiR-3E8_zs0i-NfsqzSC8xq2UGJuXKy-QErHOzEG-9klVmB]--></g></svg>